<svg width="617" height="158" viewBox="0 0 617 158" fill="none" xmlns="http://www.w3.org/2000/svg">
<path d="M16.256 25.472H10.432L1.79204 25.664L1.28004 25.216V17.664L1.79204 17.216L10.432 17.408H16.256V2.17599L16.704 1.72799H25.024L25.472 2.17599V38.976L25.792 60.48H15.936L16.128 48.32C12.608 49.984 9.08804 51.456 3.58404 53.568L3.00804 53.312L4.30346e-05 45.504L0.256043 44.864C6.59204 42.944 10.944 41.408 16.256 39.232V25.472ZM40.768 2.11199V20.992C45.248 18.688 49.536 15.936 53.12 12.864H53.824L59.584 18.752L59.52 19.392C52.928 23.68 47.296 26.88 40.768 29.44V49.152C40.768 50.816 41.088 51.136 43.904 51.136C47.424 51.136 48.576 51.008 49.6 50.112C50.688 49.216 51.136 47.808 51.392 42.24L59.2 45.568C59.904 45.888 59.904 46.08 59.904 46.848C59.712 52.544 58.944 55.424 56.832 57.152C54.272 59.328 52.608 59.648 42.688 59.648C33.152 59.648 31.232 57.984 31.232 53.184L31.424 38.912V2.04799L31.872 1.53599H40.256L40.768 2.11199ZM124.608 31.04L131.072 30.912L131.456 31.232V38.08L131.008 38.528L124.352 38.336C124.288 40.512 124.16 42.688 124.096 44.864L130.048 44.736L130.432 45.056V51.904L130.048 52.224L123.584 52.096L123.52 52.8C122.816 59.776 120.32 61.632 112.448 61.632H111.04C109.952 61.632 109.504 61.248 109.184 60.416L106.56 54.08C108.864 54.144 110.592 54.08 112.448 53.952C113.728 53.888 114.368 53.76 114.752 52.032H97.472C97.344 53.376 97.152 54.72 97.024 56.064L88.128 55.36C88.96 50.112 89.728 44.416 90.304 38.4L85.568 38.528L85.12 38.144V31.232L85.504 30.912L90.944 31.04C91.2 28.032 91.392 24.96 91.584 21.952L90.816 22.72C90.56 23.04 90.24 23.168 89.856 23.168C89.6 23.168 89.216 23.04 88.832 22.848L82.304 19.136C87.04 14.784 92.416 6.84799 94.848 0.255993L95.488 -7.62939e-06L103.488 2.62399L103.744 3.26399C103.04 4.67199 102.336 6.07999 101.568 7.55199H120.32L130.048 7.35999L130.432 7.67999V14.784L130.048 15.104L120.32 14.912H97.088C96.384 15.936 95.68 16.896 94.976 17.856L101.312 17.984H114.496L124.352 17.792L124.864 18.24C124.8 22.336 124.736 26.688 124.608 31.04ZM110.72 44.928H115.392C115.52 42.752 115.648 40.512 115.712 38.336H111.104C110.976 40.512 110.912 42.752 110.72 44.928ZM98.176 44.928H102.528C102.656 42.752 102.848 40.512 103.04 38.336H98.752C98.624 40.512 98.368 42.752 98.176 44.928ZM111.424 31.104H115.968C115.968 29.12 116.032 27.136 116.032 25.088H111.68C111.616 27.072 111.552 29.12 111.424 31.104ZM99.328 31.104H103.488C103.616 29.12 103.68 27.072 103.744 25.088H99.648C99.584 27.072 99.456 29.056 99.328 31.104ZM87.104 8.25599L81.6 14.656L80.832 14.784C77.888 12.16 74.688 9.98399 71.68 8.44799L71.552 7.93599L76.992 2.11199L77.76 1.98399C80.832 3.45599 83.968 5.37599 86.976 7.61599L87.104 8.25599ZM84.224 23.68L79.168 30.336L78.4 30.528C75.392 28.096 72 25.92 69.44 24.576L69.248 24.064L74.24 17.984L75.008 17.792C77.44 18.816 81.088 20.992 84.032 23.04L84.224 23.68ZM70.208 56.896L69.952 56.256C73.152 50.176 75.328 44.416 78.272 34.88L84.928 39.104C85.568 39.552 85.632 40 85.44 40.64C83.456 47.616 81.728 52.416 78.208 60.416L77.568 60.736L70.208 56.896ZM171.584 16.768H173.248C173.44 15.936 173.632 15.104 173.76 14.272H165.504L157.12 14.464L156.672 14.08V11.84L151.552 16.256H150.72C148.032 12.8 145.728 10.368 141.696 7.35999L141.76 6.84799L147.392 2.30399L148.16 2.43199C151.232 4.54399 153.856 6.65599 156.672 9.59999V7.61599L157.056 7.23199L165.504 7.42399H168C167.168 5.75999 166.208 4.09599 165.248 2.55999L165.44 2.04799L171.968 0.0639915L172.416 0.127991C173.888 1.85599 175.616 4.73599 176.96 7.42399H182.08C183.232 5.11999 184.192 2.75199 185.216 0.191994L185.856 -7.62939e-06L193.92 2.62399V3.39199C193.024 4.79999 192.192 6.14399 191.296 7.42399H193.152L201.216 7.23199L201.6 7.55199V14.144L201.216 14.464L193.152 14.272H183.04L182.08 16.768H186.496L194.688 16.576L195.2 17.088L195.008 24.384V32.192L195.328 50.368H186.176V48.32H171.136V50.368H162.368L162.688 32.512V24.064L162.496 16.96L162.944 16.576L171.584 16.768ZM186.176 42.048V39.296H171.136V42.048H186.176ZM186.176 33.792V31.04H171.136V33.792H186.176ZM186.176 25.536V22.976H171.136V25.536H186.176ZM202.304 51.264L198.72 59.584C198.464 60.224 198.272 60.224 197.568 60.224C192.256 60.416 186.88 60.544 181.952 60.544C176.32 60.544 171.136 60.416 167.104 60.096C161.536 59.712 156.352 58.432 152.576 53.696C150.144 55.68 147.648 58.048 144.896 60.48L144.32 60.224L139.776 52.736L139.968 52.16C143.232 50.112 145.728 48.64 148.672 47.04V33.408H147.2L141.376 33.6L140.928 33.216V25.92L141.312 25.536L147.2 25.728H148.736L156.992 25.536L157.44 25.984L157.248 35.584V47.808C159.488 51.2 164.16 52.096 170.176 52.352C178.112 52.672 191.296 52.096 202.304 51.264ZM238.912 13.184L239.296 12.672C241.408 12.736 243.456 12.8 245.44 12.8C251.52 12.8 257.088 12.352 263.488 11.264L263.936 11.648L264.32 19.712L263.936 20.224C259.136 21.248 252.416 21.824 245.44 21.824C243.392 21.824 241.408 21.824 239.36 21.696L238.912 21.12V13.184ZM267.52 52.992L267.2 53.568C262.848 54.208 258.24 54.592 252.16 54.592C239.296 54.592 235.904 48.128 234.368 41.024L234.688 40.448L241.536 37.312L242.112 37.504C243.328 43.52 245.824 45.44 254.4 45.376C256.512 45.376 261.952 44.928 266.368 44.032L266.944 44.416L267.52 52.992ZM220.416 6.59199L220.928 6.20799L229.76 7.42399L230.144 7.93599C229.952 11.648 229.12 15.296 227.2 21.824C225.728 27.136 224.832 32.448 224.832 36.672C224.832 40.064 224.896 41.728 225.216 43.136C225.408 43.968 226.048 44.032 227.008 43.072C228.032 41.92 229.376 40.192 230.272 38.912L232.128 39.872C230.208 45.312 229.248 49.344 229.12 53.376C229.056 56.256 227.648 58.048 224.704 58.112C222.144 58.176 220.608 56.768 219.136 54.208C217.728 51.84 215.936 46.656 215.936 37.44C215.936 31.68 217.28 23.872 218.752 17.984C219.712 13.76 220.352 10.368 220.416 6.59199ZM305.152 21.76H301.376L290.752 21.952L290.304 21.504V18.944H283.392L283.712 11.904V10.752L283.52 5.63199L283.968 5.18399L294.592 5.37599H306.624V0.703991L307.072 0.255993H315.648L316.096 0.703991V5.37599H328.96L339.52 5.18399L340.032 5.63199L339.84 10.496V11.904L340.16 18.944H332.992V21.504L332.544 21.952L321.984 21.76H314.624C314.496 22.144 314.368 22.464 314.176 22.848C320.832 23.808 326.272 24.832 334.4 26.944L334.528 27.584L331.008 31.552L341.056 31.36L341.504 31.808V38.08L341.056 38.528L332.736 38.4V44.8L333.056 52.672C333.056 58.88 330.752 61.504 321.408 61.504C320.128 61.504 320.064 61.376 319.744 60.736L317.952 57.216H309.44V54.976H299.328V58.176H290.688L291.008 50.176V46.208L290.816 40.704L291.2 40.256L300.8 40.448H308.288L317.824 40.256L318.272 40.704L318.08 46.208V50.176L318.272 53.824C320 53.76 321.024 53.632 321.856 53.568C323.2 53.44 323.584 53.056 323.584 51.52V38.336H293.376L282.752 38.528L282.304 38.08V31.808L282.752 31.36L291.136 31.488L287.872 26.944C296.32 26.304 302.016 25.024 304.896 22.016L305.152 21.76ZM307.008 12.416H292.352V15.104L301.376 15.296H306.944C307.008 14.592 307.008 13.888 307.008 13.12V12.416ZM315.712 12.416V15.296H321.984L330.944 15.104V12.416H315.712ZM300.672 31.552H323.904C319.232 30.208 314.496 29.056 309.696 27.968C307.008 29.888 303.872 30.912 300.672 31.552ZM309.44 49.152V46.272H299.328V49.152H309.44ZM370.176 3.58399L370.688 3.13599L379.328 3.71199L379.776 4.22399C379.392 7.16799 379.136 8.63999 378.752 10.496C378.304 12.352 377.792 13.76 377.088 16.128C379.264 12.864 382.464 11.2 386.048 11.2C389.696 11.2 392.512 12.416 395.328 16.256C398.08 20.096 399.104 25.344 399.104 32.448C399.104 45.696 394.24 54.784 379.136 59.904C378.624 60.032 378.24 60.16 377.92 60.16C377.472 60.16 377.152 59.968 376.704 59.584L370.112 53.12C385.152 49.408 388.672 43.264 388.672 31.68C388.672 27.712 388.352 24 387.456 21.952C386.688 20.16 385.664 19.392 383.616 19.392C381.184 19.392 378.112 22.656 376.896 25.856C375.872 28.416 375.552 30.272 375.552 33.664C375.552 36.608 376.384 39.424 377.216 41.6L376.896 42.24L368.832 44.16L368.192 43.904C366.592 40.832 365.632 36.608 365.632 32.768C365.632 27.84 366.784 22.656 368.064 17.024C368.96 12.928 369.6 9.40799 370.176 3.58399ZM446.208 15.552H450.112C450.56 14.208 450.944 12.8 451.264 11.392C448.576 11.584 445.952 11.712 443.456 11.776C442.624 11.776 442.176 11.712 441.792 11.008L438.272 4.67199C451.072 4.47999 463.168 3.26399 472.576 1.34399L473.216 1.40799C475.712 3.19999 477.568 4.86399 480.064 7.16799L479.936 7.80799C474.176 8.95999 467.584 9.91999 460.928 10.56C460.48 12.224 460.096 13.888 459.52 15.552H472.512L481.856 15.36L482.24 15.68V22.592L481.856 22.912L472.512 22.72H470.016C473.088 26.688 477.504 30.144 483.904 32.768L479.232 39.104C478.848 39.552 478.464 39.808 478.08 39.808C477.824 39.808 477.504 39.68 477.184 39.488C469.76 35.392 464.064 29.312 460.672 22.72H456.512C452.928 29.632 448 34.944 441.408 39.104C440.896 39.424 440.512 39.616 440.128 39.616C439.744 39.616 439.424 39.424 439.04 39.04L434.176 33.984C440 30.592 443.968 27.072 446.72 22.72H446.208L436.928 22.912L436.48 22.528V15.744L436.864 15.36L446.208 15.552ZM460.096 42.56L460.48 42.112L466.304 39.872L466.944 40.128C468.8 44.032 470.72 48.384 472.064 53.056L471.872 53.696L464.896 56.64L464.32 56.256C463.296 51.456 461.76 46.592 460.096 42.624V44.864L460.416 53.76C460.416 59.968 457.152 61.632 450.112 61.632C449.024 61.632 448.768 61.504 448.448 60.864L444.928 52.928C447.04 52.928 448.704 52.864 449.792 52.736C451.136 52.608 451.52 52.224 451.52 50.688V31.744L452.032 31.104H459.648L460.096 31.744V42.56ZM438.272 8.25599L433.024 14.656L432.32 14.784C429.504 12.16 426.496 9.98399 423.616 8.44799L423.488 7.93599L428.672 2.11199L429.376 1.98399C432.32 3.45599 435.328 5.37599 438.208 7.61599L438.272 8.25599ZM435.392 23.68L430.528 30.336L429.824 30.528C426.944 28.096 423.744 25.92 421.248 24.576L421.12 24.064L425.856 17.984L426.56 17.792C428.928 18.816 432.384 20.992 435.2 23.04L435.392 23.68ZM422.208 57.024L421.952 56.384C424.832 50.24 426.752 44.416 429.248 34.752L435.712 38.784C436.352 39.232 436.416 39.68 436.288 40.32C434.56 47.36 433.024 52.224 429.952 60.288L429.312 60.672L422.208 57.024ZM482.944 53.056L476.352 56.064L475.776 55.744C474.432 51.072 472.384 46.464 470.336 42.624L470.72 42.112L476.416 39.424L477.056 39.616C479.296 43.264 481.856 47.936 483.2 52.416L482.944 53.056ZM442.688 39.68L449.088 42.688L449.344 43.264C447.36 49.152 444.8 53.504 441.408 57.728C441.216 57.92 440.96 58.048 440.704 58.048C440.448 58.048 440.128 57.92 439.872 57.728L434.24 53.44C437.888 49.28 440.064 45.12 442.048 39.872L442.688 39.68ZM498.112 9.85599L498.56 9.47199L507.584 9.79199L508.032 10.24C507.456 17.344 507.264 23.68 507.264 27.392C507.264 33.024 507.84 36.8 508.736 40.064C509.44 42.56 510.272 44.416 511.68 44.416C513.408 44.416 515.584 40.96 517.056 35.072L523.456 43.136C523.904 43.712 523.904 44.032 523.648 44.736C521.088 51.392 516.928 56.192 511.744 56.192C507.584 56.192 503.936 53.248 501.376 48.064C499.392 44.032 497.664 36.864 497.664 28.16C497.664 22.976 497.792 16.832 498.112 9.85599ZM528.768 21.184L528.896 20.608L535.04 15.68L535.744 15.552C542.912 20.416 548.992 27.648 552.704 36.224L552.512 36.8L544.384 41.856L543.744 41.664C540.288 32.832 535.424 25.856 528.768 21.184ZM51.008 151.04L50.624 151.616C44.736 152.064 38.528 152.32 30.464 152.32C15.104 152.32 7.74404 147.648 7.74404 137.6C7.74404 131.776 12.544 126.208 19.328 121.408C16.192 116.928 12.8 111.296 9.98404 106.176L10.112 105.536L17.856 101.504L18.496 101.696C21.312 106.816 24.512 112.192 27.584 116.608C33.408 113.664 39.936 110.912 46.336 108.544L46.976 108.8L50.752 117.184L50.496 117.696C44.928 119.552 39.232 121.728 35.52 123.328C34.496 124.16 33.92 124.992 33.792 126.528C33.6 129.088 31.168 130.688 29.184 130.688C27.456 130.688 26.048 130.048 24.768 128.96C19.776 131.84 17.536 134.528 17.536 137.536C17.536 141.824 22.976 142.784 30.528 142.784C36.16 142.784 42.432 142.336 50.24 141.504L50.752 141.888L51.008 151.04ZM85.12 121.728L85.44 122.24C85.184 123.008 84.928 123.712 84.928 124.608C84.928 126.016 86.208 126.208 89.792 126.208C90.304 122.624 90.688 120 91.072 117.312C86.592 117.056 82.816 116.736 79.36 116.288L78.976 115.712L79.488 108.288L80 107.904C83.968 108.48 87.872 108.864 92.352 108.992C92.864 105.472 93.376 101.888 93.76 98.688L94.336 98.368L103.232 99.392L103.68 99.968C103.296 102.656 102.784 105.728 102.208 108.864C105.152 108.736 108.032 108.416 111.04 108.032L111.552 108.416L112.064 115.968L111.488 116.48C108.224 116.864 104.512 117.12 100.736 117.248C100.224 120.256 99.776 123.264 99.392 126.08C103.552 125.824 108.032 125.248 112.576 124.416L113.152 124.8L113.984 132.288L113.6 132.8C108.096 133.696 103.04 134.272 98.368 134.656C98.048 137.152 97.728 139.2 97.728 141.824C97.728 145.024 99.2 146.24 104.064 146.24C112.64 146.24 115.008 144.576 115.008 141.952C115.008 140.608 114.368 138.56 111.36 135.296L118.976 132.736C119.616 132.544 120.128 132.8 120.384 133.12C125.056 138.048 125.824 141.056 125.824 144C125.824 150.4 120.576 155.136 104.128 155.136C91.584 155.136 88 150.08 88 143.552C88 139.904 88.32 137.344 88.64 134.656C80.128 134.208 76.608 132.544 76.608 127.424C76.608 125.888 76.864 124.288 77.76 122.24L78.272 121.984L85.12 121.728ZM168.512 109.184L168.896 108.672C171.008 108.736 173.056 108.8 175.04 108.8C181.12 108.8 186.688 108.352 193.088 107.264L193.536 107.648L193.92 115.712L193.536 116.224C188.736 117.248 182.016 117.824 175.04 117.824C172.992 117.824 171.008 117.824 168.96 117.696L168.512 117.12V109.184ZM197.12 148.992L196.8 149.568C192.448 150.208 187.84 150.592 181.76 150.592C168.896 150.592 165.504 144.128 163.968 137.024L164.288 136.448L171.136 133.312L171.712 133.504C172.928 139.52 175.424 141.44 184 141.376C186.112 141.376 191.552 140.928 195.968 140.032L196.544 140.416L197.12 148.992ZM150.016 102.592L150.528 102.208L159.36 103.424L159.744 103.936C159.552 107.648 158.72 111.296 156.8 117.824C155.328 123.136 154.432 128.448 154.432 132.672C154.432 136.064 154.496 137.728 154.816 139.136C155.008 139.968 155.648 140.032 156.608 139.072C157.632 137.92 158.976 136.192 159.872 134.912L161.728 135.872C159.808 141.312 158.848 145.344 158.72 149.376C158.656 152.256 157.248 154.048 154.304 154.112C151.744 154.176 150.208 152.768 148.736 150.208C147.328 147.84 145.536 142.656 145.536 133.44C145.536 127.68 146.88 119.872 148.352 113.984C149.312 109.76 149.952 106.368 150.016 102.592ZM232.576 130.048H222.72L212.096 130.176L211.648 129.792V122.368L212.096 121.92L222.72 122.112H236.224V113.92H227.712L217.088 114.048L216.64 113.664V106.24L217.088 105.792L227.712 105.984H236.224V96.64L236.672 96.256H245.248L245.696 96.64V105.984H254.784L265.408 105.792L265.856 106.24V113.664L265.408 114.048L254.784 113.92H245.696V122.112H259.904L270.528 121.92L270.976 122.368V129.792L270.528 130.176L259.904 130.048H249.152C256.064 136.448 263.68 140.928 272.64 144.832L266.688 152.704C266.496 152.96 266.304 153.088 265.984 153.088C265.728 153.088 265.472 152.96 265.024 152.768C256.704 148.032 250.56 142.784 245.376 136.64L246.016 157.632H235.904L236.544 137.344C231.424 143.808 225.152 148.992 217.344 153.28C216.96 153.472 216.704 153.6 216.448 153.6C216.128 153.6 215.936 153.408 215.68 153.152L210.24 146.304C219.392 142.144 226.304 137.024 232.576 130.048ZM330.752 132.288H320.32C326.976 138.176 334.336 142.016 343.04 145.792L337.088 153.664C336.896 153.92 336.704 154.048 336.384 154.048C336.128 154.048 335.872 153.92 335.424 153.728C327.04 148.928 320.96 144.256 315.712 138.24L316.352 157.632H306.368L306.944 138.752C301.824 145.216 295.68 149.888 287.744 154.24C287.36 154.432 287.104 154.56 286.848 154.56C286.528 154.56 286.336 154.368 286.08 154.112L280.64 147.264C289.536 143.232 296.256 138.816 302.4 132.288H292.672L282.368 132.416L281.92 132.032V124.608L282.368 124.16L292.672 124.352H294.976C293.504 121.6 291.52 118.592 289.856 116.544L290.112 115.968L295.808 112.896L285.44 113.024L284.992 112.64V105.216L285.44 104.768L295.744 104.96H306.688V96.64L307.136 96.256H315.584L316.032 96.64V104.96H327.296L337.6 104.768L338.048 105.216V112.64L337.6 113.024L327.296 112.896H326.272L332.864 115.84L333.184 116.416C331.584 119.232 329.792 122.048 328.128 124.352H330.752L341.056 124.16L341.504 124.608V132.032L341.056 132.416L330.752 132.288ZM306.688 124.352V112.896H297.216C299.264 115.136 301.248 117.888 302.72 120.64L302.528 121.28L297.088 124.352H306.688ZM316.032 112.896V124.352H319.232C321.472 120.768 323.264 116.864 324.8 112.896H316.032ZM354.112 132.8V132.096C361.28 126.272 366.336 121.344 370.048 115.776C366.976 116.032 363.776 116.096 360.768 116.096L360.384 115.712L360.128 107.84L360.576 107.456C365.376 107.456 370.112 107.328 374.848 107.008C376 104.384 376.96 101.568 377.856 98.432L378.368 98.112L387.136 99.392L387.52 99.84C386.752 102.08 385.984 104 385.28 105.856C388.48 105.344 391.68 104.768 394.88 104L395.456 104.32L396.096 111.872L395.712 112.448C391.04 113.408 385.792 114.24 380.48 114.88C379.456 116.416 378.048 118.4 376.768 119.936C378.688 119.36 380.224 119.104 382.784 119.104C386.752 119.104 389.632 121.6 390.592 125.248C394.624 123.712 399.168 122.112 404.16 120.448L404.8 120.704L408.768 128.576L408.448 129.152C401.984 130.816 396.48 132.48 391.744 134.208C391.872 136.704 391.936 139.84 392 142.912L391.552 143.296L383.104 143.616L382.592 143.232C382.592 141.376 382.592 139.456 382.592 137.984C378.688 139.84 376.512 141.632 376.512 143.808C376.512 145.984 379.072 146.56 384.768 146.624C389.44 146.688 395.84 146.112 401.472 145.28L402.112 145.664L402.688 154.176L402.304 154.688C396.224 155.2 390.848 155.52 383.36 155.52C370.432 155.52 367.04 150.08 367.04 144.576C367.04 138.432 372.224 134.144 378.176 130.752C379.328 130.112 380.608 129.472 382.016 128.832C381.696 127.232 380.736 126.4 378.816 126.4C376.256 126.4 373.76 127.04 371.52 128.64C368.704 130.688 364.352 134.784 360.384 139.008L359.744 139.072L354.112 132.8ZM427.84 128.832L427.2 128.64L423.104 120.256L423.296 119.68C440.832 111.552 452.48 107.712 460.736 107.712C472.576 107.712 480.448 114.688 480.448 126.592C480.448 136.64 473.6 143.296 467.456 146.048C462.4 148.352 456 149.824 448.256 150.464C447.232 150.464 446.912 150.464 446.528 149.824L441.408 141.248C448.96 140.864 455.36 139.904 461.056 137.6C467.456 135.04 469.824 131.264 469.824 125.248C469.824 120.32 466.624 117.12 460.224 117.056C453.44 116.992 443.904 120.512 427.84 128.832ZM537.664 154.944L537.088 155.008C527.232 147.456 517.824 141.632 505.6 135.296C502.976 133.952 501.312 131.968 501.312 129.024C501.312 126.4 502.72 124.416 504.896 122.304C512.192 115.2 521.856 107.456 531.648 99.84H532.352L539.008 107.2V107.84C529.984 113.984 520.32 120.832 514.112 126.272C513.472 126.784 513.088 127.488 513.152 127.936C513.216 128.384 513.664 128.832 514.24 129.088C522.496 132.864 534.08 139.52 543.936 146.368L544 147.008L537.664 154.944ZM576.896 113.792L576.384 113.472L574.72 105.28L575.104 104.704C584.832 102.528 594.688 100.992 601.664 100.096C604.864 100.096 607.552 102.592 607.552 105.664C607.552 106.816 607.36 108.032 606.4 108.992C601.216 114.112 597.632 117.376 592.32 122.624C595.392 121.088 597.632 120.96 600.32 120.96C609.984 120.96 616.448 127.552 616.448 137.472C616.448 149.12 607.68 155.712 592.896 155.712C585.344 155.712 578.944 152.576 578.944 145.28C578.944 141.12 583.552 136.384 588.736 136.384C596.352 136.384 600 141.376 601.728 145.856C605.504 144.064 606.656 141.056 606.656 136.576C606.656 132.096 603.264 128.512 597.952 128.512C588.8 128.512 582.208 134.528 575.424 143.296L574.784 143.36L567.936 137.856L567.872 137.152C576.704 127.04 584.768 118.208 593.28 109.76C588.416 110.784 582.784 112.128 576.896 113.792ZM593.728 147.904C593.088 145.152 590.912 143.872 589.376 143.872C588.096 143.872 586.944 144.384 586.944 145.536C586.944 146.88 588.416 148.096 591.68 148.096C592.576 148.096 593.216 148.032 593.728 147.904Z" fill="white"/>
</svg>
