<svg width="94" height="51" viewBox="0 0 94 51" fill="none" xmlns="http://www.w3.org/2000/svg">
<g clip-path="url(#clip0_486_2692)">
<path d="M40.2583 36.7273L38.9848 35.6723C39.5295 34.8941 39.924 34 40.1644 32.9861L37.3844 32.208C37.2491 32.8402 37.065 33.4014 36.8208 33.8952L34.9687 32.3576C35.7802 31.9423 36.3775 31.4971 36.757 31.022C37.1402 30.5506 37.328 30.0081 37.328 29.4021C37.328 28.5341 36.9673 27.8457 36.246 27.3332C35.5247 26.8206 34.578 26.5662 33.4021 26.5662C32.5531 26.5662 31.8054 26.6934 31.1593 26.9478C30.5093 27.2022 30.0097 27.5577 29.6603 28.0216C29.3071 28.4817 29.1343 29.013 29.1343 29.6078C29.1343 30.4309 29.5401 31.224 30.3515 31.9872C29.4311 32.4474 28.7586 32.9599 28.3341 33.5174C27.9096 34.0748 27.6992 34.7258 27.6992 35.4665C27.6992 36.0988 27.9171 36.6675 28.3529 37.1725C28.7887 37.6776 29.3935 38.0779 30.1712 38.3622C30.9451 38.6503 31.813 38.7925 32.771 38.7925C33.5712 38.7925 34.3338 38.6877 35.0589 38.482C35.7839 38.2762 36.4451 37.9732 37.0387 37.5766L38.4212 38.7139C35.1002 41.8004 30.5807 43.7009 25.6029 43.7009C15.3993 43.7009 7.13049 35.7284 7.13049 25.8928C7.13049 22.3499 8.2087 19.0539 10.0571 16.2779V32.612H28.011V28.0702H16.3197V24.2691H26.2566V19.8732H16.3197V16.3715H27.5978V11.8297H14.2798C17.4092 9.48393 21.3351 8.08473 25.6029 8.08473C32.5418 8.08473 38.579 11.7735 41.7385 17.2245H49.827C46.382 7.20929 36.8434 0 25.6067 0C11.4659 0 0 11.4181 0 25.5C0 39.5819 11.4659 51 25.6067 51C36.2761 51 45.4165 44.5015 49.2635 35.2645H41.3178C40.9909 35.7733 40.634 36.2559 40.2583 36.7273ZM32.5831 28.9269C32.7822 28.7623 33.0602 28.6838 33.4096 28.6838C33.7365 28.6838 33.9882 28.7548 34.1647 28.8933C34.3413 29.0354 34.4277 29.23 34.4277 29.4769C34.4277 29.7014 34.3263 29.9184 34.1272 30.1279C33.9281 30.3374 33.5862 30.5581 33.1016 30.7938C32.786 30.5132 32.5718 30.285 32.4554 30.1092C32.3389 29.9333 32.2826 29.7537 32.2826 29.5592C32.2826 29.3011 32.384 29.0878 32.5831 28.9269ZM33.0264 36.3495C32.4328 36.3495 31.9595 36.2335 31.6101 36.0015C31.2569 35.7696 31.0841 35.474 31.0841 35.1149C31.0841 34.8118 31.1743 34.5387 31.3584 34.2956C31.5387 34.0524 31.8317 33.8204 32.23 33.596L34.9725 35.8594C34.3789 36.1849 33.7289 36.3495 33.0264 36.3495ZM34.3676 24.9762V17.8941H32.8724V20.3858C32.5005 19.9705 31.9858 19.7647 31.3283 19.7647C30.8437 19.7647 30.4041 19.8732 30.0097 20.0902C29.6152 20.3072 29.3071 20.614 29.0855 21.0143C28.8601 21.4146 28.7511 21.8785 28.7511 22.406C28.7511 22.9335 28.8638 23.3974 29.0855 23.7978C29.3109 24.1981 29.619 24.5086 30.0097 24.7256C30.4004 24.9426 30.8437 25.0511 31.3283 25.0511C32.0309 25.0511 32.5681 24.8266 32.94 24.3814V24.9725H34.3676V24.9762ZM32.5268 23.4461C32.2788 23.7042 31.9632 23.8314 31.5875 23.8314C31.2119 23.8314 30.8888 23.7042 30.6371 23.4461C30.3891 23.1879 30.2651 22.8438 30.2651 22.4098C30.2651 21.9758 30.3891 21.6316 30.6371 21.3735C30.885 21.1153 31.2043 20.9881 31.5875 20.9881C31.9707 20.9881 32.2788 21.1153 32.5268 21.3735C32.7747 21.6316 32.9024 21.9758 32.9024 22.4098C32.9024 22.8438 32.7785 23.1879 32.5268 23.4461ZM38.7969 24.9762V24.3664C38.5978 24.5909 38.3611 24.7592 38.0869 24.8752C37.8126 24.9912 37.5158 25.0511 37.1965 25.0511C36.5203 25.0511 35.9831 24.8565 35.5848 24.4674C35.1866 24.0783 34.9912 23.5022 34.9912 22.739V19.8358H36.4865V22.5183C36.4865 23.3451 36.8359 23.7603 37.5309 23.7603C37.8878 23.7603 38.177 23.6444 38.3949 23.4124C38.6128 23.1805 38.7218 22.8363 38.7218 22.3761V19.8358H40.217V24.9725H38.7969V24.9762ZM50.3718 24.9762V22.0469C50.3718 21.2837 50.1576 20.7113 49.7293 20.3334C49.3011 19.9555 48.6887 19.7647 47.8885 19.7647C47.4715 19.7647 47.0695 19.8209 46.675 19.9256C46.2806 20.0341 45.9462 20.1875 45.6644 20.382L46.2017 21.4221C46.3858 21.2762 46.6112 21.1602 46.8779 21.0742C47.1446 20.9881 47.4114 20.947 47.6894 20.947C48.0838 20.947 48.3844 21.033 48.5798 21.2088C48.7789 21.3847 48.8765 21.6353 48.8765 21.9571H47.6894C46.9343 21.9571 46.3782 22.0955 46.0176 22.3686C45.6569 22.6417 45.4766 23.0158 45.4766 23.4947C45.4766 23.5471 45.4804 23.5995 45.4879 23.6481L44.5186 23.1206C44.2556 23.592 43.8687 23.8277 43.3577 23.8277C42.967 23.8277 42.6439 23.7005 42.3885 23.4461C42.133 23.1917 42.0053 22.8437 42.0053 22.406C42.0053 21.9683 42.133 21.6204 42.3885 21.366C42.6439 21.1116 42.967 20.9844 43.3577 20.9844C43.8612 20.9844 44.2481 21.2201 44.5186 21.6915L45.6795 21.0704C45.4954 20.6514 45.1986 20.3259 44.7929 20.1015C44.3871 19.877 43.9138 19.761 43.369 19.761C42.8243 19.761 42.3246 19.8732 41.8888 20.1015C41.4493 20.3259 41.1074 20.6402 40.8632 21.0405C40.619 21.4408 40.495 21.8972 40.495 22.406C40.495 22.9148 40.619 23.3713 40.8632 23.7716C41.1074 24.1719 41.4493 24.4861 41.8888 24.7106C42.3284 24.9351 42.8205 25.0511 43.369 25.0511C43.9175 25.0511 44.3871 24.9351 44.7929 24.7069C45.1197 24.5235 45.3714 24.2766 45.5555 23.9736C45.5931 24.0858 45.6419 24.1943 45.7058 24.2953C45.8598 24.531 46.0815 24.7143 46.3707 24.849C46.66 24.9837 47.0056 25.0511 47.4001 25.0511C48.1665 25.0511 48.6925 24.8116 48.9705 24.3365V24.9762H50.368H50.3718ZM48.8765 23.3563C48.7939 23.5845 48.6511 23.7603 48.4558 23.8763C48.2567 23.9923 48.0312 24.0522 47.7758 24.0522C47.5203 24.0522 47.3062 23.996 47.1559 23.8838C47.0056 23.7716 46.9305 23.6219 46.9305 23.4311C46.9305 23.0308 47.2386 22.8288 47.8509 22.8288H48.8765V23.3526V23.3563ZM51.1795 21.1004H50.383V19.9555H51.1795V18.706H52.6747V19.9555H53.9596V21.1004H52.6747V23.1917C52.6747 23.4087 52.7311 23.5733 52.8438 23.693C52.9565 23.809 53.1143 23.8688 53.3171 23.8688C53.5538 23.8688 53.7529 23.8052 53.922 23.678L54.324 24.7293C54.1775 24.8378 53.9971 24.9201 53.783 24.9725C53.5688 25.0249 53.3434 25.0548 53.1067 25.0548C52.4944 25.0548 52.0173 24.8977 51.6829 24.5871C51.3485 24.2766 51.1795 23.8165 51.1795 23.2141V21.1041V21.1004ZM54.5156 18.8893C54.3428 18.7284 54.2563 18.5339 54.2563 18.2982C54.2563 18.0625 54.3428 17.8642 54.5156 17.7071C54.6884 17.55 54.91 17.4676 55.188 17.4676C55.466 17.4676 55.6877 17.5425 55.8605 17.6959C56.0333 17.8493 56.1197 18.0401 56.1197 18.2683C56.1197 18.5152 56.0333 18.7209 55.8605 18.8856C55.6877 19.0464 55.4623 19.1287 55.188 19.1287C54.9138 19.1287 54.6884 19.0502 54.5156 18.8893ZM54.4367 19.8433H55.9319V24.98H54.4367V19.8433ZM57.5849 24.7143C58.0169 24.9388 58.5016 25.0548 59.0463 25.0548C59.5911 25.0548 60.0757 24.9426 60.504 24.7143C60.9323 24.4899 61.2666 24.1756 61.5108 23.7753C61.755 23.375 61.8752 22.9186 61.8752 22.4098C61.8752 21.901 61.755 21.4445 61.5108 21.0442C61.2666 20.6439 60.9323 20.3297 60.504 20.1052C60.0757 19.8807 59.5911 19.7647 59.0463 19.7647C58.5016 19.7647 58.0169 19.877 57.5849 20.1052C57.1529 20.3297 56.8148 20.6439 56.5743 21.0442C56.3301 21.4445 56.2099 21.901 56.2099 22.4098C56.2099 22.9186 56.3301 23.375 56.5743 23.7753C56.8185 24.1756 57.1529 24.4899 57.5849 24.7143ZM58.0996 21.3735C58.3475 21.1153 58.6631 20.9881 59.0501 20.9881C59.437 20.9881 59.7488 21.1153 59.993 21.3735C60.2372 21.6316 60.3612 21.9758 60.3612 22.4098C60.3612 22.8438 60.2372 23.1879 59.993 23.4461C59.7488 23.7042 59.4333 23.8314 59.0501 23.8314C58.6669 23.8314 58.3513 23.7042 58.0996 23.4461C57.8516 23.1879 57.7239 22.8438 57.7239 22.4098C57.7239 21.9758 57.8479 21.6316 58.0996 21.3735ZM63.6372 24.9762H62.142V19.8396H63.5696V20.4419C63.7687 20.2249 64.0129 20.0603 64.3059 19.9406C64.5989 19.8246 64.922 19.7647 65.2752 19.7647C65.9138 19.7647 66.4285 19.9555 66.823 20.3371C67.2175 20.7188 67.4128 21.2837 67.4128 22.0357V24.9762H65.9176V22.2639C65.9176 21.8561 65.8274 21.553 65.6508 21.351C65.4705 21.149 65.2113 21.0517 64.8732 21.0517C64.4975 21.0517 64.197 21.1677 63.9715 21.3996C63.7461 21.6316 63.6372 21.9758 63.6372 22.436V24.9762ZM53.5613 36.7161C53.133 36.4916 52.6484 36.3757 52.1037 36.3757C51.5589 36.3757 51.0743 36.4879 50.6423 36.7161C50.2102 36.9406 49.8721 37.2548 49.6317 37.6551C49.3875 38.0555 49.2673 38.5119 49.2673 39.0207C49.2673 39.5295 49.3875 39.9859 49.6317 40.3862C49.8759 40.7865 50.2102 41.1008 50.6423 41.3253C51.0743 41.5497 51.5589 41.6657 52.1037 41.6657C52.6484 41.6657 53.133 41.5535 53.5613 41.3253C53.9896 41.1008 54.324 40.7865 54.5682 40.3862C54.8124 39.9859 54.9326 39.5295 54.9326 39.0207C54.9326 38.5119 54.8124 38.0555 54.5682 37.6551C54.324 37.2548 53.9896 36.9406 53.5613 36.7161ZM53.0504 40.057C52.8062 40.3151 52.4906 40.4423 52.1074 40.4423C51.7242 40.4423 51.4087 40.3151 51.1569 40.057C50.909 39.7989 50.7813 39.4547 50.7813 39.0207C50.7813 38.5867 50.9052 38.2425 51.1569 37.9844C51.4049 37.7262 51.7205 37.599 52.1074 37.599C52.4944 37.599 52.8062 37.7262 53.0504 37.9844C53.2946 38.2425 53.4186 38.5867 53.4186 39.0207C53.4186 39.4547 53.2946 39.7989 53.0504 40.057ZM59.8841 36.9481C60.2786 37.3297 60.4739 37.8946 60.4739 38.6466V41.5871H58.9787V38.8748C58.9787 38.467 58.8885 38.164 58.712 37.9619C58.5316 37.7599 58.2724 37.6626 57.9343 37.6626C57.5586 37.6626 57.2581 37.7786 57.0326 38.0106C56.8072 38.2425 56.6983 38.5867 56.6983 39.0469V41.5871H55.2031V36.4505H56.6307V37.0528C56.8298 36.8358 57.074 36.6712 57.367 36.5515C57.66 36.4355 57.9831 36.3757 58.3363 36.3757C58.9749 36.3757 59.4896 36.5665 59.8841 36.9481ZM67.8148 36.7011C67.4053 36.4842 66.947 36.3757 66.4435 36.3757C65.9401 36.3757 65.4593 36.4879 65.0385 36.7161C64.6215 36.9406 64.2946 37.2548 64.0579 37.6551V36.5702H62.7355V36.3495C62.7355 35.8519 62.961 35.605 63.4155 35.605C63.6447 35.605 63.8476 35.6648 64.0204 35.7845L64.4148 34.7071C64.2796 34.6173 64.1143 34.55 63.9114 34.5013C63.7086 34.4527 63.4982 34.4302 63.2728 34.4302C62.6416 34.4302 62.1495 34.6023 61.8001 34.9465C61.4507 35.2907 61.2779 35.7546 61.2779 36.3382V36.5665H60.4814V37.7113H61.2779V41.5871H62.7731V37.7113H64.0279C63.8062 38.1041 63.6935 38.5381 63.6935 39.0207C63.6935 39.5295 63.8138 39.9859 64.0579 40.3862C64.3021 40.7865 64.644 41.1008 65.0948 41.3253C65.5419 41.5497 66.0566 41.6657 66.6389 41.6657C67.5706 41.6657 68.2806 41.3889 68.7653 40.8352L67.9688 39.9747C67.7885 40.1468 67.5969 40.274 67.3903 40.3526C67.1836 40.4311 66.9432 40.4723 66.6765 40.4723C66.2858 40.4723 65.9627 40.3787 65.6997 40.1954C65.4367 40.0121 65.2714 39.7577 65.2 39.4397H69.0996C69.1184 39.1928 69.1297 39.0581 69.1297 39.0394C69.1297 38.5044 69.0132 38.0367 68.7803 37.6327C68.5474 37.2286 68.2243 36.9181 67.8186 36.7011H67.8148ZM65.1775 38.5717C65.2301 38.2425 65.3691 37.9806 65.5983 37.7898C65.8274 37.599 66.1129 37.5018 66.4511 37.5018C66.7892 37.5018 67.0634 37.599 67.2963 37.7936C67.5255 37.9881 67.6683 38.2463 67.7171 38.5717H65.1775ZM72.5973 37.7524C72.432 37.7412 72.3193 37.7337 72.2629 37.7337C71.8346 37.7337 71.5003 37.8534 71.2561 38.0929C71.0119 38.3323 70.8916 38.6877 70.8916 39.1666V41.5909H69.3964V36.4542H70.824V37.1314C71.0044 36.8845 71.2448 36.6974 71.5491 36.5665C71.8534 36.4393 72.2028 36.3757 72.5973 36.3757V37.7487V37.7524ZM76.5382 36.7011C76.1287 36.4842 75.6704 36.3757 75.1669 36.3757C74.6635 36.3757 74.1826 36.4879 73.7619 36.7161C73.3449 36.9406 73.0143 37.2586 72.7738 37.6626C72.5334 38.0667 72.4132 38.5194 72.4132 39.0244C72.4132 39.5295 72.5334 39.9897 72.7776 40.39C73.0218 40.7903 73.3636 41.1045 73.8145 41.329C74.2615 41.5535 74.7762 41.6695 75.3585 41.6695C76.2902 41.6695 77.0003 41.3926 77.4849 40.8389L76.6885 39.9784C76.5081 40.1505 76.3165 40.2777 76.1099 40.3563C75.9033 40.4349 75.6628 40.476 75.3961 40.476C75.0054 40.476 74.6823 40.3825 74.4193 40.1992C74.1563 40.0158 73.991 39.7614 73.9197 39.4434H77.8193C77.8381 39.1965 77.8493 39.0618 77.8493 39.0431C77.8493 38.5081 77.7329 38.0405 77.4999 37.6364C77.267 37.2324 76.9439 36.9219 76.5382 36.7049V36.7011ZM73.9009 38.5717C73.9535 38.2425 74.0925 37.9806 74.3216 37.7898C74.5508 37.599 74.8363 37.5018 75.1745 37.5018C75.5126 37.5018 75.7868 37.599 76.0197 37.7936C76.2489 37.9881 76.3917 38.2463 76.4405 38.5717H73.9009ZM82.8008 36.9481C83.1953 37.3297 83.3907 37.8946 83.3907 38.6466V41.5871H81.8954V38.8748C81.8954 38.467 81.8053 38.164 81.6287 37.9619C81.4484 37.7599 81.1892 37.6626 80.851 37.6626C80.4754 37.6626 80.1748 37.7786 79.9494 38.0106C79.724 38.2425 79.615 38.5867 79.615 39.0469V41.5871H78.1198V36.4505H79.5474V37.0528C79.7465 36.8358 79.9907 36.6712 80.2838 36.5515C80.5768 36.4355 80.8999 36.3757 81.253 36.3757C81.8917 36.3757 82.4064 36.5665 82.8008 36.9481ZM87.6547 39.7353L88.8156 40.3638C88.6315 40.7716 88.3347 41.0896 87.9289 41.3178C87.5232 41.546 87.0498 41.662 86.5051 41.662C85.9604 41.662 85.4607 41.5497 85.0249 41.3215C84.5854 41.097 84.2435 40.7828 83.9993 40.3825C83.7551 39.9822 83.6311 39.5257 83.6311 39.0169C83.6311 38.5081 83.7551 38.0517 83.9993 37.6514C84.2435 37.2511 84.5854 36.9368 85.0249 36.7124C85.4644 36.4879 85.9566 36.3719 86.5051 36.3719C87.0536 36.3719 87.5232 36.4842 87.9289 36.7124C88.3347 36.9368 88.6315 37.2623 88.8156 37.6813L87.6547 38.3024C87.388 37.831 87.001 37.5953 86.4938 37.5953C86.1031 37.5953 85.78 37.7225 85.5246 37.9769C85.2691 38.2313 85.1414 38.5792 85.1414 39.0169C85.1414 39.4547 85.2691 39.8026 85.5246 40.057C85.78 40.3114 86.1031 40.4386 86.4938 40.4386C87.0048 40.4386 87.3917 40.2029 87.6547 39.7315V39.7353ZM94 39.0394C94 38.5044 93.8835 38.0367 93.6506 37.6327C93.4177 37.2286 93.0946 36.9181 92.6889 36.7011C92.2794 36.4842 91.821 36.3757 91.3176 36.3757C90.8142 36.3757 90.3333 36.4879 89.9126 36.7161C89.4955 36.9406 89.1649 37.2586 88.9245 37.6626C88.6841 38.0667 88.5638 38.5194 88.5638 39.0244C88.5638 39.5295 88.6841 39.9897 88.9283 40.39C89.1725 40.7903 89.5143 41.1045 89.9651 41.329C90.4122 41.5535 90.9269 41.6695 91.5092 41.6695C92.4409 41.6695 93.151 41.3926 93.6356 40.8389L92.8391 39.9784C92.6588 40.1505 92.4672 40.2777 92.2606 40.3563C92.054 40.4349 91.8135 40.476 91.5468 40.476C91.1561 40.476 90.8292 40.3825 90.57 40.1992C90.307 40.0158 90.1417 39.7614 90.0703 39.4434H93.9699C93.9887 39.1965 94 39.0618 94 39.0431V39.0394ZM90.0516 38.5717C90.1041 38.2425 90.2432 37.9806 90.4723 37.7898C90.7015 37.599 90.987 37.5018 91.3251 37.5018C91.6632 37.5018 91.9375 37.599 92.1704 37.7936C92.3996 37.9881 92.5423 38.2463 92.5912 38.5717H90.0516Z" fill="#EA6300"/>
</g>
<defs>
<clipPath id="clip0_486_2692">
<rect width="94" height="51" fill="white"/>
</clipPath>
</defs>
</svg>
