<svg width="57" height="56" viewBox="0 0 57 56" fill="none" xmlns="http://www.w3.org/2000/svg">
<path d="M14.3177 27.5262L20.4024 17.2159C19.9115 16.1668 19.6309 14.9973 19.6309 13.759C19.6309 9.20152 23.401 5.50391 28.0479 5.50391C32.6948 5.50391 36.4649 9.20152 36.4649 13.759C36.4649 14.9887 36.1931 16.1582 35.6933 17.2159L39.5862 23.8114C37.5609 26.0472 34.8779 27.6896 31.8355 28.4377L28.0567 22.0056L22.0858 32.1181C23.9709 32.7029 25.9699 33.021 28.0567 33.021C34.2554 33.021 39.7878 30.2091 43.3914 25.7978C44.3646 24.6111 46.1269 24.4219 47.3368 25.3678C48.5468 26.3137 48.7397 28.0507 47.7752 29.2374C43.1547 34.8956 36.0353 38.5244 28.0654 38.5244C24.9617 38.5244 21.9806 37.9741 19.2363 36.968L14.2651 45.3779C13.853 46.0745 13.2392 46.642 12.5027 47.0032L7.64544 49.3851C7.20705 49.6001 6.68976 49.5743 6.27767 49.3249C5.86559 49.0755 5.61133 48.6284 5.61133 48.1554V43.3915C5.61133 42.6692 5.80422 41.9555 6.18123 41.3191L11.4419 32.4019C10.3196 31.4388 9.285 30.3811 8.34685 29.2374C7.37364 28.0507 7.57529 26.3223 8.78524 25.3678C9.99518 24.4133 11.7575 24.6111 12.7307 25.7978C13.2305 26.4083 13.7653 26.9845 14.3264 27.5262H14.3177ZM39.0251 40.5796C41.8746 39.4617 44.4961 37.9139 46.8196 36.0307L49.9409 41.3191C50.3091 41.9469 50.5108 42.6606 50.5108 43.3915V48.1554C50.5108 48.6284 50.2565 49.0755 49.8444 49.3249C49.4323 49.5743 48.915 49.6001 48.4766 49.3851L43.6193 47.0032C42.8829 46.642 42.2691 46.0745 41.857 45.3779L39.0251 40.5796ZM28.0567 16.5108C29.6085 16.5108 30.8623 15.2811 30.8623 13.759C30.8623 12.237 29.6085 11.0073 28.0567 11.0073C26.5048 11.0073 25.251 12.237 25.251 13.759C25.251 15.2811 26.5048 16.5108 28.0567 16.5108Z" fill="#FE9F5D"/>
</svg>
