<svg width="59" height="59" viewBox="0 0 59 59" fill="none" xmlns="http://www.w3.org/2000/svg">
<path d="M40.625 5.88879C39.81 5.99869 39.0499 6.45658 38.5737 7.18006C37.9509 8.1325 37.9326 9.38714 38.537 10.3487C39.0499 11.1638 39.9565 11.5118 40.7166 12.043C41.4035 12.5192 42.3284 13.2518 43.2534 14.2592C45.085 16.2465 46.8708 19.232 46.8708 23.4446C46.8708 25.0656 48.1804 26.3752 49.8013 26.3752C51.4223 26.3752 52.7319 25.0656 52.7319 23.4446C52.7319 17.4004 50.1219 13.0595 47.5576 10.2846C46.2847 8.90177 45.0117 7.89439 44.0501 7.23501C43.0427 6.53901 41.898 5.71479 40.6067 5.88879H40.625ZM27.8405 17.5835C22.5655 17.5835 18.2155 21.5764 17.6477 26.6957C17.4737 28.3075 16.0175 29.4614 14.4149 29.2874C12.8122 29.1134 11.6492 27.6573 11.8232 26.0547C12.7115 17.9956 19.5434 11.7224 27.8405 11.7224C36.7421 11.7224 43.9585 18.9389 43.9585 27.8405C43.9585 32.0532 42.3376 35.8903 39.6909 38.766C38.592 39.9565 38.0974 41.0371 38.0974 41.9438V42.5024C38.0974 48.1712 33.5093 52.7594 27.8405 52.7594C26.2195 52.7594 24.9099 51.4498 24.9099 49.8288C24.9099 48.2078 26.2195 46.8982 27.8405 46.8982C30.2674 46.8982 32.2363 44.9293 32.2363 42.5024V41.9438C32.2363 38.9308 33.8298 36.4856 35.3867 34.8005C37.0717 32.969 38.0974 30.5329 38.0974 27.8496C38.0974 22.1808 33.5093 17.5927 27.8405 17.5927V17.5835ZM5.86133 49.8196C5.86133 48.1987 7.17092 46.8891 8.79188 46.8891C10.4128 46.8891 11.7224 48.1987 11.7224 49.8196C11.7224 51.4406 10.4128 52.7502 8.79188 52.7502C7.17092 52.7502 5.86133 51.4406 5.86133 49.8196ZM20.5141 41.028C22.1351 41.028 23.4447 39.7184 23.4447 38.0974C23.4447 36.4765 22.1351 35.1669 20.5141 35.1669C18.8931 35.1669 17.5835 36.4765 17.5835 38.0974C17.5835 39.7184 18.8931 41.028 20.5141 41.028ZM13.7921 38.9583C12.6474 37.8135 10.7883 37.8135 9.64358 38.9583C8.49883 40.103 8.49883 41.9621 9.64358 43.1068L15.5047 48.968C16.6494 50.1127 18.5085 50.1127 19.6533 48.968C20.798 47.8232 20.798 45.9641 19.6533 44.8194L13.7921 38.9583ZM27.8405 24.9099C26.2195 24.9099 24.9099 26.2195 24.9099 27.8405C24.9099 29.0585 23.93 30.0384 22.712 30.0384C21.494 30.0384 20.5141 29.0585 20.5141 27.8405C20.5141 23.7926 23.7927 20.5141 27.8405 20.5141C31.8883 20.5141 35.1669 23.7926 35.1669 27.8405C35.1669 29.0585 34.187 30.0384 32.969 30.0384C31.751 30.0384 30.771 29.0585 30.771 27.8405C30.771 26.2195 29.4615 24.9099 27.8405 24.9099Z" fill="#FE9F5D"/>
</svg>
