<svg width="57" height="57" viewBox="0 0 57 57" fill="none" xmlns="http://www.w3.org/2000/svg">
<path d="M37.2189 31.1341C39.367 28.8633 40.6822 25.8121 40.6822 22.4453C40.6822 15.475 35.027 9.81983 28.0567 9.81983C21.0863 9.81983 15.4312 15.475 15.4312 22.4453C15.4312 25.8121 16.7463 28.8633 18.8944 31.1341C20.7619 33.0981 22.8311 35.8687 23.5676 39.2793H32.5457C33.2822 35.8599 35.3514 33.0981 37.2189 31.1341ZM40.2701 34.0275C38.2009 36.2106 36.4737 38.876 36.4737 41.8833V43.4878C36.4737 47.3631 33.3348 50.502 29.4595 50.502H26.6538C22.7785 50.502 19.6397 47.3631 19.6397 43.4878V41.8833C19.6397 38.876 17.9124 36.2106 15.8432 34.0275C12.9762 31.0114 11.2227 26.9344 11.2227 22.4453C11.2227 13.1516 18.7629 5.61133 28.0567 5.61133C37.3504 5.61133 44.8907 13.1516 44.8907 22.4453C44.8907 26.9344 43.1371 31.0114 40.2701 34.0275ZM23.8482 21.7439C23.8482 22.91 22.91 23.8482 21.7439 23.8482C20.5778 23.8482 19.6397 22.91 19.6397 21.7439C19.6397 17.4828 23.0941 14.0283 27.3552 14.0283C28.5213 14.0283 29.4595 14.9665 29.4595 16.1326C29.4595 17.2987 28.5213 18.2368 27.3552 18.2368C25.4176 18.2368 23.8482 19.8062 23.8482 21.7439Z" fill="#FE9F5D"/>
</svg>
