<svg width="163" height="88" viewBox="0 0 163 88" fill="none" xmlns="http://www.w3.org/2000/svg">
<g clip-path="url(#clip0_408_2187)">
<path d="M69.8097 63.3727L67.6012 61.5522C68.5459 60.2095 69.2299 58.6667 69.6468 56.9173L64.8261 55.5745C64.5915 56.6655 64.2723 57.6338 63.8489 58.4859L60.6372 55.8327C62.0444 55.1162 63.0802 54.348 63.7381 53.5282C64.4026 52.7148 64.7283 51.7788 64.7283 50.733C64.7283 49.2353 64.103 48.0475 62.8522 47.1631C61.6014 46.2788 59.9597 45.8398 57.9207 45.8398C56.4484 45.8398 55.152 46.0593 54.0315 46.4982C52.9045 46.9372 52.038 47.5505 51.4322 48.3509C50.8198 49.145 50.5202 50.0616 50.5202 51.088C50.5202 52.5082 51.2237 53.8768 52.6309 55.1937C51.0348 55.9877 49.8687 56.8721 49.1326 57.8339C48.3964 58.7958 48.0316 59.919 48.0316 61.1972C48.0316 62.2881 48.4095 63.2694 49.1651 64.1408C49.9208 65.0123 50.9697 65.703 52.3182 66.1937C53.6602 66.6907 55.165 66.936 56.8262 66.936C58.2138 66.936 59.5363 66.7553 60.7936 66.4002C62.0509 66.0452 63.1974 65.5223 64.2267 64.838L66.6241 66.8005C60.8652 72.1262 53.0283 75.4055 44.3965 75.4055C26.7031 75.4055 12.3646 61.6491 12.3646 44.6778C12.3646 38.5646 14.2342 32.8773 17.4394 28.0874V56.2717H48.5723V48.4349H28.2991V41.8762H45.53V34.2911H28.2991V28.2488H47.8557V20.412H24.7617C30.1883 16.3644 36.996 13.9501 44.3965 13.9501C56.4288 13.9501 66.8977 20.3151 72.3764 29.7207H86.4022C80.4284 12.4396 63.888 0 44.403 0C19.8823 0 0 19.7019 0 44C0 68.2981 19.8823 88 44.403 88C62.9043 88 78.7541 76.787 85.425 60.8486H71.6468C71.08 61.7265 70.4611 62.5593 69.8097 63.3727ZM56.5005 49.9131C56.8458 49.6291 57.3278 49.4935 57.9337 49.4935C58.5005 49.4935 58.9369 49.6162 59.2431 49.855C59.5493 50.1004 59.6991 50.436 59.6991 50.8621C59.6991 51.2494 59.5232 51.6238 59.178 51.9853C58.8327 52.3468 58.2399 52.7277 57.3995 53.1344C56.8523 52.6502 56.481 52.2565 56.279 51.9531C56.0771 51.6496 55.9793 51.3398 55.9793 51.0041C55.9793 50.5587 56.1552 50.1907 56.5005 49.9131ZM57.2692 62.7207C56.2399 62.7207 55.4191 62.5205 54.8132 62.1203C54.2009 61.7201 53.9012 61.2101 53.9012 60.5904C53.9012 60.0675 54.0576 59.5962 54.3768 59.1766C54.6895 58.757 55.1976 58.3568 55.8881 57.9695L60.6437 61.875C59.6144 62.4366 58.4874 62.7207 57.2692 62.7207ZM59.5949 43.0962V30.8762H57.0021V35.1755C56.3572 34.4589 55.4647 34.1039 54.3246 34.1039C53.4843 34.1039 52.7221 34.2911 52.038 34.6655C51.354 35.0399 50.8198 35.5692 50.4355 36.26C50.0446 36.9507 49.8557 37.7512 49.8557 38.6614C49.8557 39.5716 50.0511 40.3721 50.4355 41.0628C50.8263 41.7535 51.3605 42.2893 52.038 42.6637C52.7156 43.0381 53.4843 43.2253 54.3246 43.2253C55.5429 43.2253 56.4744 42.838 57.1194 42.0698V43.0898H59.5949V43.0962ZM56.4028 40.456C55.9728 40.9014 55.4256 41.1209 54.7742 41.1209C54.1227 41.1209 53.5625 40.9014 53.126 40.456C52.696 40.0106 52.481 39.4167 52.481 38.6678C52.481 37.919 52.696 37.3251 53.126 36.8797C53.5559 36.4343 54.1097 36.2148 54.7742 36.2148C55.4386 36.2148 55.9728 36.4343 56.4028 36.8797C56.8327 37.3251 57.0542 37.919 57.0542 38.6678C57.0542 39.4167 56.8393 40.0106 56.4028 40.456ZM67.2755 43.0962V42.044C66.9303 42.4313 66.5198 42.7218 66.0443 42.9219C65.5687 43.1221 65.0541 43.2253 64.5003 43.2253C63.3277 43.2253 62.3961 42.8897 61.7056 42.2183C61.0151 41.5469 60.6763 40.5528 60.6763 39.2359V34.2265H63.2691V38.855C63.2691 40.2817 63.8749 40.9982 65.0801 40.9982C65.699 40.9982 66.2006 40.7981 66.5785 40.3979C66.9563 39.9977 67.1452 39.4038 67.1452 38.6097V34.2265H69.738V43.0898H67.2755V43.0962ZM87.3468 43.0962V38.0417C87.3468 36.7248 86.9755 35.7371 86.2328 35.0851C85.4901 34.4331 84.4283 34.1039 83.0407 34.1039C82.3176 34.1039 81.6205 34.2007 80.9365 34.3815C80.2525 34.5687 79.6727 34.8333 79.1841 35.169L80.1157 36.9636C80.4349 36.7119 80.8257 36.5117 81.2883 36.3633C81.7508 36.2148 82.2133 36.1438 82.6954 36.1438C83.3794 36.1438 83.9006 36.2923 84.2394 36.5957C84.5846 36.8991 84.754 37.3316 84.754 37.8867H82.6954C81.386 37.8867 80.4218 38.1256 79.7964 38.5968C79.1711 39.0681 78.8584 39.7136 78.8584 40.5399C78.8584 40.6303 78.8649 40.7207 78.8779 40.8046L77.1972 39.8944C76.7411 40.7077 76.0701 41.1144 75.1842 41.1144C74.5067 41.1144 73.9464 40.895 73.5034 40.456C73.0604 40.017 72.8389 39.4167 72.8389 38.6614C72.8389 37.9061 73.0604 37.3058 73.5034 36.8668C73.9464 36.4278 74.5067 36.2083 75.1842 36.2083C76.0571 36.2083 76.7281 36.615 77.1972 37.4284L79.2101 36.3568C78.8909 35.6338 78.3763 35.0722 77.6727 34.6849C76.9691 34.2975 76.1483 34.0974 75.2037 34.0974C74.2591 34.0974 73.3927 34.2911 72.637 34.6849C71.8748 35.0722 71.282 35.6144 70.8585 36.3052C70.4351 36.9959 70.2201 37.7834 70.2201 38.6614C70.2201 39.5393 70.4351 40.3269 70.8585 41.0176C71.282 41.7083 71.8748 42.2506 72.637 42.6379C73.3992 43.0252 74.2526 43.2253 75.2037 43.2253C76.1548 43.2253 76.9691 43.0252 77.6727 42.6315C78.2395 42.3151 78.676 41.8891 78.9952 41.3662C79.0603 41.5599 79.145 41.7471 79.2557 41.9214C79.5228 42.3281 79.9072 42.6444 80.4088 42.8768C80.9104 43.1092 81.5098 43.2253 82.1938 43.2253C83.5228 43.2253 84.4348 42.8122 84.9169 41.9924V43.0962H87.3403H87.3468ZM84.754 40.3011C84.6107 40.6948 84.3631 40.9982 84.0244 41.1984C83.6791 41.3985 83.2882 41.5018 82.8452 41.5018C82.4023 41.5018 82.0309 41.4049 81.7703 41.2113C81.5098 41.0176 81.3795 40.7594 81.3795 40.4302C81.3795 39.7394 81.9137 39.3908 82.9755 39.3908H84.754V40.2946V40.3011ZM88.7474 36.4085H87.3663V34.4331H88.7474V32.277H91.3402V34.4331H93.5682V36.4085H91.3402V40.017C91.3402 40.3914 91.4379 40.6755 91.6334 40.882C91.8288 41.0822 92.1024 41.1854 92.4542 41.1854C92.8646 41.1854 93.2099 41.0757 93.503 40.8562L94.2001 42.6702C93.946 42.8574 93.6333 42.9994 93.262 43.0898C92.8907 43.1802 92.4998 43.2318 92.0894 43.2318C91.0275 43.2318 90.2002 42.9607 89.6204 42.4249C89.0406 41.8891 88.7474 41.0951 88.7474 40.0557V36.4149V36.4085ZM94.5323 32.5933C94.2326 32.3157 94.0828 31.98 94.0828 31.5734C94.0828 31.1667 94.2326 30.8245 94.5323 30.5534C94.832 30.2823 95.2163 30.1403 95.6984 30.1403C96.1805 30.1403 96.5648 30.2694 96.8645 30.534C97.1642 30.7987 97.314 31.1279 97.314 31.5217C97.314 31.9478 97.1642 32.3028 96.8645 32.5869C96.5648 32.8644 96.174 33.0065 95.6984 33.0065C95.2228 33.0065 94.832 32.8709 94.5323 32.5933ZM94.3955 34.2394H96.9883V43.1027H94.3955V34.2394ZM99.8547 42.6444C100.604 43.0317 101.444 43.2318 102.389 43.2318C103.333 43.2318 104.174 43.0381 104.916 42.6444C105.659 42.257 106.239 41.7148 106.662 41.0241C107.086 40.3333 107.294 39.5458 107.294 38.6678C107.294 37.7899 107.086 37.0023 106.662 36.3116C106.239 35.6209 105.659 35.0786 104.916 34.6913C104.174 34.304 103.333 34.1039 102.389 34.1039C101.444 34.1039 100.604 34.2975 99.8547 34.6913C99.1055 35.0786 98.5192 35.6209 98.1023 36.3116C97.6788 37.0023 97.4704 37.7899 97.4704 38.6678C97.4704 39.5458 97.6788 40.3333 98.1023 41.0241C98.5257 41.7148 99.1055 42.257 99.8547 42.6444ZM100.747 36.8797C101.177 36.4343 101.724 36.2148 102.395 36.2148C103.066 36.2148 103.607 36.4343 104.03 36.8797C104.454 37.3251 104.669 37.919 104.669 38.6678C104.669 39.4167 104.454 40.0106 104.03 40.456C103.607 40.9014 103.06 41.1209 102.395 41.1209C101.731 41.1209 101.184 40.9014 100.747 40.456C100.317 40.0106 100.096 39.4167 100.096 38.6678C100.096 37.919 100.311 37.3251 100.747 36.8797ZM110.35 43.0962H107.757V34.233H110.232V35.2723C110.578 34.8979 111.001 34.6138 111.509 34.4073C112.017 34.2072 112.578 34.1039 113.19 34.1039C114.297 34.1039 115.19 34.4331 115.874 35.0915C116.558 35.75 116.897 36.7248 116.897 38.0223V43.0962H114.304V38.4161C114.304 37.7124 114.148 37.1896 113.841 36.841C113.529 36.4924 113.079 36.3245 112.493 36.3245C111.841 36.3245 111.32 36.5246 110.929 36.9249C110.539 37.3251 110.35 37.919 110.35 38.713V43.0962ZM92.8776 63.3533C92.135 62.966 91.2946 62.7658 90.35 62.7658C89.4054 62.7658 88.565 62.9595 87.8158 63.3533C87.0667 63.7406 86.4804 64.2829 86.0634 64.9736C85.64 65.6643 85.4315 66.4519 85.4315 67.3298C85.4315 68.2077 85.64 68.9953 86.0634 69.686C86.4869 70.3768 87.0667 70.919 87.8158 71.3063C88.565 71.6937 89.4054 71.8938 90.35 71.8938C91.2946 71.8938 92.135 71.7001 92.8776 71.3063C93.6203 70.919 94.2001 70.3768 94.6235 69.686C95.047 68.9953 95.2554 68.2077 95.2554 67.3298C95.2554 66.4519 95.047 65.6643 94.6235 64.9736C94.2001 64.2829 93.6203 63.7406 92.8776 63.3533ZM91.9917 69.118C91.5682 69.5634 91.021 69.7829 90.3565 69.7829C89.692 69.7829 89.1448 69.5634 88.7083 69.118C88.2784 68.6725 88.0569 68.0786 88.0569 67.3298C88.0569 66.581 88.2719 65.9871 88.7083 65.5417C89.1383 65.0962 89.6855 64.8768 90.3565 64.8768C91.0275 64.8768 91.5682 65.0962 91.9917 65.5417C92.4151 65.9871 92.6301 66.581 92.6301 67.3298C92.6301 68.0786 92.4151 68.6725 91.9917 69.118ZM103.842 63.7535C104.526 64.412 104.864 65.3867 104.864 66.6843V71.7582H102.272V67.078C102.272 66.3744 102.115 65.8515 101.809 65.5029C101.496 65.1543 101.047 64.9865 100.461 64.9865C99.8091 64.9865 99.2879 65.1866 98.897 65.5869C98.5062 65.9871 98.3173 66.581 98.3173 67.375V71.7582H95.7245V62.895H98.2V63.9343C98.5453 63.5599 98.9687 63.2758 99.4768 63.0692C99.985 62.8691 100.545 62.7658 101.158 62.7658C102.265 62.7658 103.158 63.0951 103.842 63.7535ZM117.594 63.3275C116.884 62.953 116.089 62.7658 115.216 62.7658C114.343 62.7658 113.509 62.9595 112.78 63.3533C112.056 63.7406 111.49 64.2829 111.079 64.9736V63.1015H108.786V62.7207C108.786 61.8621 109.177 61.436 109.965 61.436C110.363 61.436 110.714 61.5393 111.014 61.7459L111.698 59.8867C111.464 59.7318 111.177 59.6156 110.825 59.5317C110.473 59.4478 110.109 59.409 109.718 59.409C108.623 59.409 107.77 59.706 107.164 60.2999C106.558 60.8938 106.258 61.6942 106.258 62.7013V63.0951H104.877V65.0704H106.258V71.7582H108.851V65.0704H111.027C110.643 65.7482 110.447 66.4971 110.447 67.3298C110.447 68.2077 110.656 68.9953 111.079 69.686C111.503 70.3768 112.095 70.919 112.877 71.3063C113.652 71.6937 114.545 71.8938 115.555 71.8938C117.17 71.8938 118.402 71.4161 119.242 70.4607L117.861 68.9759C117.548 69.2729 117.216 69.4924 116.858 69.6279C116.499 69.7635 116.082 69.8345 115.62 69.8345C114.942 69.8345 114.382 69.6731 113.926 69.3568C113.47 69.0405 113.183 68.6015 113.06 68.0528H119.822C119.854 67.6268 119.874 67.3944 119.874 67.3621C119.874 66.439 119.672 65.632 119.268 64.9349C118.864 64.2377 118.304 63.7019 117.6 63.3275H117.594ZM113.021 66.5552C113.112 65.9871 113.353 65.5352 113.75 65.206C114.148 64.8768 114.643 64.7089 115.229 64.7089C115.815 64.7089 116.291 64.8768 116.695 65.2124C117.092 65.5481 117.34 65.9935 117.424 66.5552H113.021ZM125.887 65.1414C125.6 65.1221 125.405 65.1092 125.307 65.1092C124.564 65.1092 123.984 65.3157 123.561 65.7289C123.138 66.142 122.929 66.7553 122.929 67.5816V71.7647H120.336V62.9014H122.812V64.0698C123.125 63.6438 123.542 63.321 124.069 63.0951C124.597 62.8756 125.203 62.7658 125.887 62.7658V65.135V65.1414ZM132.72 63.3275C132.01 62.953 131.216 62.7658 130.343 62.7658C129.47 62.7658 128.636 62.9595 127.906 63.3533C127.183 63.7406 126.61 64.2893 126.193 64.9865C125.776 65.6837 125.568 66.4648 125.568 67.3363C125.568 68.2077 125.776 69.0018 126.199 69.6925C126.623 70.3832 127.216 70.9255 127.997 71.3128C128.773 71.7001 129.665 71.9002 130.675 71.9002C132.291 71.9002 133.522 71.4225 134.362 70.4671L132.981 68.9824C132.668 69.2793 132.336 69.4988 131.978 69.6344C131.62 69.77 131.203 69.841 130.74 69.841C130.063 69.841 129.502 69.6796 129.046 69.3633C128.59 69.0469 128.304 68.608 128.18 68.0593H134.942C134.975 67.6332 134.994 67.4008 134.994 67.3685C134.994 66.4454 134.792 65.6385 134.388 64.9413C133.984 64.2441 133.424 63.7083 132.72 63.3339V63.3275ZM128.147 66.5552C128.238 65.9871 128.48 65.5352 128.877 65.206C129.274 64.8768 129.769 64.7089 130.356 64.7089C130.942 64.7089 131.418 64.8768 131.821 65.2124C132.219 65.5481 132.466 65.9935 132.551 66.5552H128.147ZM143.58 63.7535C144.264 64.412 144.603 65.3867 144.603 66.6843V71.7582H142.01V67.078C142.01 66.3744 141.854 65.8515 141.548 65.5029C141.235 65.1543 140.785 64.9865 140.199 64.9865C139.548 64.9865 139.027 65.1866 138.636 65.5869C138.245 65.9871 138.056 66.581 138.056 67.375V71.7582H135.463V62.895H137.939V63.9343C138.284 63.5599 138.707 63.2758 139.215 63.0692C139.724 62.8691 140.284 62.7658 140.896 62.7658C142.004 62.7658 142.896 63.0951 143.58 63.7535ZM151.997 68.5628L154.01 69.6473C153.691 70.3509 153.176 70.8996 152.473 71.2934C151.769 71.6872 150.948 71.8873 150.004 71.8873C149.059 71.8873 148.192 71.6937 147.437 71.2999C146.675 70.9126 146.082 70.3703 145.658 69.6796C145.235 68.9888 145.02 68.2013 145.02 67.3234C145.02 66.4454 145.235 65.6579 145.658 64.9671C146.082 64.2764 146.675 63.7341 147.437 63.3468C148.199 62.9595 149.052 62.7594 150.004 62.7594C150.955 62.7594 151.769 62.953 152.473 63.3468C153.176 63.7341 153.691 64.2958 154.01 65.0188L151.997 66.0904C151.534 65.277 150.863 64.8703 149.984 64.8703C149.306 64.8703 148.746 65.0898 148.303 65.5288C147.86 65.9677 147.639 66.5681 147.639 67.3234C147.639 68.0786 147.86 68.679 148.303 69.118C148.746 69.5569 149.306 69.7764 149.984 69.7764C150.87 69.7764 151.541 69.3697 151.997 68.5563V68.5628ZM163 67.3621C163 66.439 162.798 65.632 162.394 64.9349C161.99 64.2377 161.43 63.7019 160.726 63.3275C160.016 62.953 159.222 62.7658 158.349 62.7658C157.476 62.7658 156.642 62.9595 155.912 63.3533C155.189 63.7406 154.616 64.2893 154.199 64.9865C153.782 65.6837 153.573 66.4648 153.573 67.3363C153.573 68.2077 153.782 69.0018 154.205 69.6925C154.629 70.3832 155.222 70.9255 156.003 71.3128C156.779 71.7001 157.671 71.9002 158.681 71.9002C160.296 71.9002 161.528 71.4225 162.368 70.4671L160.987 68.9824C160.674 69.2793 160.342 69.4988 159.984 69.6344C159.625 69.77 159.209 69.841 158.746 69.841C158.068 69.841 157.502 69.6796 157.052 69.3633C156.596 69.0469 156.31 68.608 156.186 68.0593H162.948C162.98 67.6332 163 67.4008 163 67.3685V67.3621ZM156.153 66.5552C156.244 65.9871 156.485 65.5352 156.883 65.206C157.28 64.8768 157.775 64.7089 158.362 64.7089C158.948 64.7089 159.424 64.8768 159.827 65.2124C160.225 65.5481 160.472 65.9935 160.557 66.5552H156.153Z" fill="white"/>
</g>
<defs>
<clipPath id="clip0_408_2187">
<rect width="163" height="88" fill="white"/>
</clipPath>
</defs>
</svg>
