<svg width="53" height="54" viewBox="0 0 53 54" fill="none" xmlns="http://www.w3.org/2000/svg">
<path d="M8.49321 4.82979C8.93935 4.37454 9.63335 4.3071 10.1621 4.66118L19.9855 11.3381C20.7208 11.8355 21.1587 12.6786 21.1587 13.5806V17.7622L28.6605 25.417C31.4117 24.1525 34.766 24.6667 37.0215 26.9767L47.4397 37.6075C48.9847 39.184 48.9847 41.7469 47.4397 43.3318L42.4743 48.3985C40.9293 49.975 38.4177 49.975 36.8645 48.3985L26.4463 37.7677C24.1825 35.4577 23.6785 32.0434 24.9178 29.236L17.416 21.5812H13.3181C12.4341 21.5812 11.6079 21.1344 11.1205 20.384L4.57708 10.3602C4.23008 9.82907 4.29617 9.11248 4.74232 8.65723L8.49321 4.82979ZM20.4729 30.4163C19.9524 33.5272 20.663 36.8151 22.6375 39.4538L14.797 47.4628C12.4754 49.8317 8.70802 49.8317 6.38643 47.4628C4.06484 45.0938 4.06484 41.2495 6.38643 38.8805L17.573 27.4572L20.4812 30.4163H20.4729ZM34.3777 5.39463C36.0383 5.39463 37.6329 5.70656 39.0952 6.27983C39.9214 6.60019 40.0701 7.67086 39.4505 8.31158L34.766 13.0917C34.5181 13.3446 34.3777 13.6902 34.3777 14.0443V17.5345C34.3777 18.2764 34.9725 18.8834 35.6996 18.8834H39.12C39.467 18.8834 39.8057 18.7401 40.0536 18.4872L44.7381 13.7071C45.366 13.0748 46.4152 13.2266 46.7292 14.0696C47.291 15.5618 47.5967 17.1889 47.5967 18.8834C47.5967 22.5254 46.1756 25.8217 43.8788 28.2497L39.8222 24.1103C37.0876 21.3283 33.3367 20.2576 29.8171 20.873L25.1244 16.0845V13.5806L25.1078 13.1591C25.0418 12.1137 24.7443 11.1105 24.2403 10.2169C26.6693 7.2662 30.3046 5.39463 34.3777 5.3862V5.39463Z" fill="#FE9F5D"/>
</svg>
