<svg width="407" height="331" viewBox="0 0 407 331" fill="none" xmlns="http://www.w3.org/2000/svg">
<path d="M404.802 298.128C404.796 297.835 404.789 297.562 404.789 297.302C403.283 297.289 401.614 297.12 399.829 296.659C397.79 296.139 394.31 295.249 391.551 292.363C390.168 290.914 390.291 290.361 388.162 288.119C387.077 286.982 385.72 285.559 383.636 284.097C381.5 282.595 380.773 282.576 379.994 281.328C379.092 279.885 379.475 278.982 378.488 278.059C377.442 277.084 376.371 277.5 374.969 277.052C373.644 276.629 372.82 275.7 369.944 270.514C366.684 264.633 367.041 264.555 365.548 262.592C364.6 261.351 363.951 260.72 361.653 257.815C361.464 257.581 360.899 256.905 359.77 255.554C358.4 253.916 358.186 253.682 357.757 253.416C356.543 252.655 355.939 253.104 354.615 252.538C353.381 252.005 352.238 250.894 351.725 249.646C350.745 247.268 352.569 245.734 351.472 243.986C350.68 242.718 349.583 243.303 348.583 241.971C347.233 240.177 348.739 238.494 347.453 236.441C346.492 234.907 345.467 235.544 344.311 233.926C342.967 232.047 344.012 230.728 342.675 228.518C342.019 227.433 341.597 227.479 339.909 225.88C338.117 224.184 336.572 222.715 335.897 220.98C334.436 217.243 338.117 215.124 336.708 211.914C335.65 209.503 333.28 210.055 331.313 206.513C330.839 205.662 329.755 203.712 330.501 202.237C331.131 200.976 332.417 201.392 333.449 200.099C334.481 198.806 333.722 197.746 334.163 193.99C334.475 191.345 334.644 189.883 335.793 188.798C337 187.654 338.214 187.933 338.643 186.861C339.039 185.873 338.091 185.379 337.728 183.293C337.546 182.247 337.676 181.031 337.929 178.607C338.104 176.944 338.24 176.547 338.033 175.754C337.682 174.429 336.987 174.331 336.611 173.207C336.033 171.491 337.143 170.347 337.221 168.827C337.286 167.559 336.624 165.74 333.358 163.381C332.228 164.342 330.956 164.518 329.651 164.823C325.775 165.74 321.139 168.06 318.575 171.257C316.107 174.331 317.367 175.962 315.03 177.691C313.062 179.153 310.686 179.036 305.947 178.802C300.077 178.516 298.253 177.36 295.974 178.802C294.228 179.907 294.617 181.018 292.65 182.13C290.507 183.338 287.28 183.592 285.54 182.279C285.391 182.162 285.242 182.045 285.118 181.909C283.645 180.31 284.95 178.185 283.346 176.807C281.983 175.637 280.567 176.762 279.139 175.696C278.113 174.935 277.522 173.376 277.464 171.719C277.418 170.49 277.665 169.21 278.256 168.157C279.827 165.343 282.918 165.792 284.235 162.614C284.787 161.281 284.716 160.079 284.677 159.507C284.463 156.401 282.398 155.354 280.47 151.52C280.002 150.584 279.093 148.752 278.697 146.419C278.431 144.852 278.262 142.246 280.249 136.215C282.554 129.223 283.632 130.165 284.015 126.902C284.696 121.125 281.301 118.447 283.353 114.925C283.437 114.782 283.385 114.88 287.118 111.156C290.338 107.939 290.884 107.36 291.105 106.275C291.559 104.085 289.936 103.578 290.442 101.174C290.864 99.1524 292.176 98.7625 292.215 96.7348C292.241 95.565 291.806 95.5845 291.553 93.8493C291.15 91.1263 292.117 90.5089 291.553 88.9687C290.851 87.0646 289.209 87.604 288.228 85.6413C287.105 83.3862 288.676 81.508 287.345 80.0978C286.56 79.2659 285.885 79.7858 284.911 78.9865C283.469 77.8167 283.502 75.5226 283.58 72.3317C283.677 68.5428 284.307 67.9839 283.801 65.8978C283.554 64.871 282.924 62.2974 281.139 61.6866C279.158 61.0042 277.775 63.4412 275.38 62.7978C274.01 62.4274 272.958 61.2316 272.497 60.1333C271.575 57.9302 273.309 56.7864 272.718 53.6995C272.309 51.5548 271.302 51.2429 271.607 49.9301C272.023 48.143 273.977 48.2989 274.711 46.3818C275.243 44.9845 274.724 43.5548 273.821 41.0592C273.062 38.9601 272.724 39.129 272.27 37.5108C271.484 34.7228 272.335 33.7285 271.38 32.6302C270.296 31.3759 268.848 32.2793 267.394 31.077C266.043 29.9592 266.491 28.5229 265.725 25.8649C264.622 22.0111 262.888 22.2516 261.473 18.4172C260.323 15.2913 261.577 15.4083 260.408 10.9695C260.103 9.81275 259.194 7.46017 257.395 2.81349C257.142 2.15711 256.941 1.64371 256.772 1.21478C256.194 2.34558 255.253 3.78831 253.733 5.10108C253.383 5.40653 252.019 6.55683 249.773 7.44067C245.176 9.25385 243.475 7.52515 240.956 9.24084C238.664 10.8006 237.996 13.6471 237.716 14.8234C236.911 18.2483 238.437 19.1191 237.716 22.0306C237.002 24.9031 234.853 26.7293 232.315 28.8739C228.49 32.1168 225.764 32.5912 225.653 34.6384C225.562 36.3865 227.465 37.4134 226.913 38.6027C226.361 39.7919 224.303 39.0771 223.316 40.4028C222.017 42.1445 224.108 45.3355 223.316 45.8099C222.725 46.1608 221.219 44.6141 221.154 44.5491C219.602 42.9374 219.972 41.6766 218.817 40.9487C217.661 40.2209 215.681 40.4743 214.856 41.4881C213.752 42.8464 215.421 44.6856 214.499 45.9918C213.421 47.5061 210.681 45.7319 206.578 46.7132C204.871 47.1226 202.981 48.3639 199.196 50.8595C196.112 52.8936 195.495 53.6345 193.437 54.2844C193.242 54.3429 192.833 54.4663 192.269 54.5898C191.275 54.7978 189.788 54.9927 188.042 54.8303C186.075 54.6483 184.562 54.5053 183.543 53.3875C182.082 51.7953 182.887 49.5987 181.926 49.2413C180.946 48.8773 179.985 51.1064 177.966 51.7628C177.368 51.9578 176.745 51.9838 176.122 51.8993C176.089 54.5508 177.342 57.3648 178.167 59.217C179.933 63.1618 181.153 63.2398 181.634 66.1513C182.01 68.4389 181.595 70.499 181.173 72.6241C180.446 76.244 179.719 76.3025 179.556 78.6356C179.284 82.4634 181.024 85.4203 181.407 86.0312C183.374 89.2287 185.322 88.8907 187.178 91.1198C190.788 95.4546 188.509 102.863 185.796 111.695C183.432 119.383 181.049 121.976 180.251 122.795C178.238 124.855 177.829 124.296 173.551 127.65C167.707 132.238 167.61 133.967 163.851 135.513C161.812 136.352 159.864 136.651 158.189 136.787C157.482 136.846 156.819 136.878 156.229 136.898C152.404 137.054 149.574 136.384 148.84 136.202C146.074 135.513 140.705 134.175 140.062 131.114C139.776 129.736 140.62 128.846 139.932 126.863C139.718 126.246 139.315 125.128 138.257 124.543C137.082 123.894 135.771 124.283 134.907 124.543C132.537 125.252 132.544 126.441 129.888 127.507C128.518 128.059 127.116 128.306 126.538 128.41C125.084 128.67 124.642 128.573 123.318 128.924C122.454 129.151 122.311 129.281 120.74 129.827C119.701 130.191 118.494 130.574 117.91 130.73C116.364 131.14 112.495 131.712 110.917 129.931C109.482 128.306 111.417 126.376 110.06 124.517C108.833 122.834 105.82 122.464 101.665 121.95C100.568 121.814 99.1785 121.703 98.1073 120.67C97.445 120.033 96.984 119.117 96.6854 118.532C96.1335 117.447 96.0816 116.953 95.8284 116.394C95.0752 114.711 93.5625 114.808 90.7057 112.975C88.8813 111.806 87.453 110.889 86.4337 109.128C85.4208 107.38 85.7584 106.431 84.5833 105.424C84.3106 105.19 83.8626 104.871 80.8825 104.286C76.4352 103.409 75.8443 103.806 75.6171 104.001C74.7211 104.754 75.4158 105.703 74.4809 107.276C73.2343 109.369 70.6633 109.947 70.4945 109.979C67.9883 110.506 66.3068 109.115 65.5147 109.979C65.0472 110.486 65.3978 111.227 65.5147 112.404C65.8069 115.322 64.1577 116.179 62.9501 120.521C62.4048 122.477 61.9373 124.173 62.236 126.363C62.6125 129.08 63.963 130.971 64.6577 131.92C67.0145 135.143 68.6376 134.597 71.345 138.048C73.2084 140.42 74.0199 142.688 74.1887 143.176C75.1496 145.944 74.5069 146.484 75.3249 148.589C76.5325 151.689 78.2855 151.436 80.3047 154.718C80.8566 155.621 83.3692 159.696 82.0122 162.835C81.2072 164.7 79.7853 164.524 75.8898 166.968C73.5849 168.417 69.4102 171.03 66.6379 175.514C64.9628 178.217 65.3978 179.017 63.5085 181.213C61.6386 183.384 60.3077 183.657 59.0936 185.912C58.5936 186.841 58.3274 188.109 57.8145 190.611C56.7822 195.628 57.003 196.947 55.8213 197.733C54.6332 198.526 52.7439 198.299 51.6921 197.447C50.5883 196.551 51.1077 195.517 49.8417 193.314C49.4521 192.638 48.6665 191.3 47.1408 190.325C46.4526 189.883 44.797 188.823 43.1154 189.168C41.4209 189.519 40.0769 191.787 37.4669 196.304C36.1554 198.578 35.7529 199.521 34.4544 200.476C32.9221 201.607 32.2988 201.165 30.5004 202.172C27.6956 203.745 27.9034 205.552 25.4167 207.261C24.9882 207.56 24.0144 208.171 19.58 208.957C13.029 210.12 12.8732 209.191 10.1658 210.088C6.36113 211.348 2.93307 214.416 1.31643 218.192C0.991803 218.959 0.771055 219.674 0.615234 220.395C2.09553 220.434 3.40054 220.395 4.52375 220.33C6.85457 220.193 9.86062 219.83 10.9449 221.448C11.7564 222.663 10.7501 223.891 11.7824 225.224C12.7238 226.439 13.8795 225.828 15.6909 227.368C16.905 228.401 16.8596 229.071 17.7101 229.259C19.067 229.558 19.7293 227.953 21.1122 228.122C22.5406 228.297 22.3912 230.072 24.1377 230.897C25.4752 231.527 26.0011 230.696 29.9356 230.52C32.143 230.423 32.3832 230.663 33.0844 230.267C34.5842 229.415 35.3438 227.238 35.3503 225.471C35.3568 223.852 34.7271 223.033 35.227 222.572C35.7399 222.091 36.5579 222.845 38.5057 222.825C40.2133 222.806 40.46 222.208 41.5312 222.449C43.1154 222.799 43.1024 224.216 44.4269 224.717C46.3227 225.438 47.4459 222.962 50.7312 222.449C53.1594 222.065 55.2824 222.994 57.7886 224.086C61.1257 225.542 61.0219 226.504 63.08 226.738C65.6251 227.024 66.4821 225.639 69.0012 226.231C70.9684 226.692 70.8061 227.628 72.5331 227.999C75.5716 228.655 77.422 226.062 79.4542 226.543C79.5386 226.562 79.6295 226.582 79.7204 226.614C80.3761 226.855 81.1357 227.472 81.7266 229.045C82.7005 229.155 83.499 229.285 83.973 229.37C87.0634 229.896 86.7453 230.377 88.8294 230.585C94.2702 231.125 95.8933 227.791 100.133 228.713C101.763 229.071 103.087 230.104 105.736 232.171C108.008 233.945 109.93 235.446 111.274 238.026C112.78 240.918 111.8 241.783 113.352 243.882C114.916 246 116.118 245.389 118.825 247.853C119.526 248.489 121.649 250.53 122.98 253.708C123.331 254.553 123.72 256.165 124.493 259.375C125.428 263.281 125.512 264.145 126.382 264.665C128.038 265.653 129.862 263.775 131.291 264.854C132.362 265.659 132.628 267.681 131.855 268.636C130.823 269.916 128.259 268.863 128.077 269.39C127.824 270.144 132.55 273.815 136.193 272.412C137.361 271.963 137.92 271.183 139.776 268.629C143.049 264.132 144.685 261.884 144.873 261.637C148.093 257.425 151.495 254.813 153.937 252.941C156.605 250.894 157.014 250.965 160.169 248.782C165.928 244.798 166.383 243.303 171.687 239.144C175.076 236.486 179.206 233.243 185.283 230.644C189.73 228.739 190.509 229.194 196.404 226.601C201.553 224.34 202.053 223.508 205.085 222.812C208.169 222.104 210.928 222.416 216.434 223.033C222.498 223.716 225.523 224.054 229.341 225.704C231.698 226.725 233.581 228.018 237.353 230.605C240.229 232.58 242.975 234.465 246.033 237.285C246.053 237.305 246.072 237.318 246.092 237.337C252.13 242.933 251.085 244.551 254.714 246.416C259.155 248.697 261.258 246.546 266.511 249.087C268.855 250.225 268.653 250.758 273.185 254.436C281.45 261.143 282.411 259.596 286.982 264.236C290.76 268.07 291.741 270.78 294.974 271.196C296.402 271.378 298.104 271.086 300.168 272.204C301.123 272.717 301.447 273.153 303.018 274.719C305.518 277.208 307.115 278.807 309.05 280.087C310.92 281.328 312.53 281.893 314.075 282.433C317.834 283.752 319.178 283.349 321.944 284.279C324.483 285.13 325.437 286.17 328.813 288.639C331.203 290.388 336.156 294.014 341.876 296.685C346.817 298.992 351.635 300.266 353.433 300.708C357.504 301.715 358.634 301.566 361.471 302.722C365.042 304.172 365.749 305.413 370.015 308.253C378.033 313.595 379.702 311.983 382.877 315.675C385.922 319.223 384.675 321.043 388.252 324.974C390.155 327.067 394.511 330.94 396.719 329.777C399.725 328.191 395.251 319.119 400.03 314.303C402.114 312.204 403.718 313.166 405.185 310.989C407.061 308.188 405.023 305.712 404.815 298.095L404.802 298.128ZM144.918 193.477C144.918 193.477 144.938 193.496 144.951 193.503C144.944 193.496 144.931 193.483 144.918 193.477ZM144.769 193.295C144.769 193.295 144.789 193.321 144.795 193.334C144.789 193.321 144.776 193.308 144.769 193.295ZM145.1 193.626C145.1 193.626 145.113 193.633 145.12 193.639C145.12 193.639 145.107 193.633 145.1 193.626ZM147.353 194.484C147.249 194.439 147.152 194.4 147.055 194.361C147.152 194.4 147.256 194.439 147.353 194.484ZM233.003 176.606C232.879 176.528 232.75 176.456 232.594 176.378C233.451 176.788 233.769 177.249 234.243 177.697C233.853 177.327 233.561 176.95 232.996 176.606H233.003ZM234.762 178.12C234.762 178.12 234.71 178.087 234.684 178.068C234.71 178.087 234.736 178.1 234.762 178.12ZM234.444 177.879C234.405 177.847 234.373 177.814 234.334 177.788C234.366 177.821 234.405 177.853 234.444 177.879ZM235.1 178.321C235.1 178.321 235.139 178.341 235.158 178.354C235.139 178.341 235.119 178.334 235.1 178.321Z" fill="#EA6300"/>
<path d="M147.989 194.809C147.827 194.718 147.671 194.633 147.516 194.562M146.886 194.296C146.769 194.25 146.658 194.218 146.548 194.179M148.074 194.861C148.217 194.945 148.366 195.043 148.515 195.147M148.665 195.244C148.846 195.374 149.028 195.517 149.217 195.68M404.802 298.128C404.796 297.835 404.789 297.562 404.789 297.302C403.283 297.289 401.614 297.12 399.829 296.659C397.79 296.139 394.31 295.249 391.551 292.363C390.168 290.914 390.291 290.361 388.162 288.119C387.077 286.982 385.72 285.559 383.636 284.097C381.5 282.595 380.773 282.576 379.994 281.328C379.092 279.885 379.475 278.982 378.488 278.059C377.442 277.084 376.371 277.5 374.969 277.052C373.644 276.629 372.82 275.7 369.944 270.514C366.684 264.633 367.041 264.555 365.548 262.592C364.6 261.351 363.951 260.72 361.653 257.815C361.464 257.581 360.899 256.905 359.77 255.554C358.4 253.916 358.186 253.682 357.757 253.416C356.543 252.655 355.939 253.104 354.615 252.538C353.381 252.005 352.238 250.894 351.725 249.646C350.745 247.268 352.569 245.734 351.472 243.986C350.68 242.718 349.583 243.303 348.583 241.971C347.233 240.177 348.739 238.494 347.453 236.441C346.492 234.907 345.467 235.544 344.311 233.926C342.967 232.047 344.012 230.728 342.675 228.518C342.019 227.433 341.597 227.479 339.909 225.88C338.117 224.184 336.572 222.715 335.897 220.98C334.436 217.243 338.117 215.124 336.708 211.914C335.65 209.503 333.28 210.055 331.313 206.513C330.839 205.662 329.755 203.712 330.501 202.237C331.131 200.976 332.417 201.392 333.449 200.099C334.481 198.806 333.722 197.746 334.163 193.99C334.475 191.345 334.644 189.883 335.793 188.798C337 187.654 338.214 187.933 338.643 186.861C339.039 185.873 338.091 185.379 337.728 183.293C337.546 182.247 337.676 181.031 337.929 178.607C338.104 176.944 338.24 176.547 338.033 175.754C337.682 174.429 336.987 174.331 336.611 173.207C336.033 171.491 337.143 170.347 337.221 168.827C337.286 167.559 336.624 165.74 333.358 163.381C332.228 164.342 330.956 164.518 329.651 164.823C325.775 165.74 321.139 168.06 318.575 171.257C316.107 174.331 317.367 175.962 315.03 177.691C313.062 179.153 310.686 179.036 305.947 178.802C300.077 178.516 298.253 177.36 295.974 178.802C294.228 179.907 294.617 181.018 292.65 182.13C290.507 183.338 287.28 183.592 285.54 182.279C285.391 182.162 285.242 182.045 285.118 181.909C283.645 180.31 284.95 178.185 283.346 176.807C281.983 175.637 280.567 176.762 279.139 175.696C278.113 174.935 277.522 173.376 277.464 171.719C277.418 170.49 277.665 169.21 278.256 168.157C279.827 165.343 282.917 165.792 284.235 162.614C284.787 161.281 284.716 160.079 284.677 159.507C284.463 156.401 282.398 155.354 280.47 151.52C280.002 150.584 279.093 148.752 278.697 146.419C278.431 144.852 278.262 142.246 280.249 136.215C282.554 129.223 283.632 130.165 284.015 126.902C284.696 121.125 281.301 118.447 283.353 114.925C283.437 114.782 283.385 114.88 287.118 111.156C290.338 107.939 290.884 107.36 291.105 106.275C291.559 104.085 289.936 103.578 290.442 101.174C290.864 99.1524 292.176 98.7625 292.215 96.7348C292.241 95.565 291.806 95.5845 291.553 93.8493C291.15 91.1263 292.117 90.5089 291.553 88.9687C290.851 87.0646 289.209 87.604 288.228 85.6413C287.105 83.3862 288.676 81.508 287.345 80.0978C286.56 79.2659 285.885 79.7858 284.911 78.9865C283.469 77.8167 283.502 75.5226 283.58 72.3317C283.677 68.5428 284.307 67.9839 283.8 65.8978C283.554 64.871 282.924 62.2974 281.139 61.6866C279.158 61.0042 277.775 63.4412 275.38 62.7978C274.01 62.4274 272.958 61.2316 272.497 60.1333C271.575 57.9302 273.309 56.7864 272.718 53.6995C272.309 51.5548 271.302 51.2429 271.607 49.9301C272.023 48.143 273.977 48.2989 274.711 46.3818C275.243 44.9845 274.724 43.5548 273.821 41.0592C273.062 38.9601 272.724 39.129 272.27 37.5108C271.484 34.7228 272.335 33.7285 271.38 32.6302C270.296 31.3759 268.848 32.2793 267.394 31.077C266.043 29.9592 266.491 28.5229 265.725 25.8649C264.622 22.0111 262.888 22.2516 261.473 18.4172C260.323 15.2913 261.577 15.4083 260.408 10.9695C260.103 9.81274 259.194 7.46017 257.395 2.81349C257.142 2.15711 256.941 1.64371 256.772 1.21478C256.194 2.34558 255.253 3.78831 253.733 5.10108C253.383 5.40653 252.019 6.55683 249.773 7.44067C245.176 9.25385 243.475 7.52515 240.956 9.24084C238.664 10.8006 237.996 13.6471 237.716 14.8234C236.911 18.2483 238.437 19.1191 237.716 22.0306C237.002 24.9031 234.853 26.7293 232.315 28.8739C228.49 32.1168 225.764 32.5912 225.653 34.6384C225.562 36.3865 227.465 37.4134 226.913 38.6027C226.361 39.7919 224.303 39.0771 223.316 40.4028C222.017 42.1445 224.108 45.3355 223.316 45.8099C222.725 46.1608 221.219 44.6141 221.154 44.5491C219.602 42.9374 219.972 41.6766 218.817 40.9487C217.661 40.2209 215.681 40.4743 214.856 41.4881C213.752 42.8464 215.421 44.6856 214.499 45.9918C213.421 47.5061 210.681 45.7319 206.578 46.7132C204.871 47.1226 202.981 48.3639 199.196 50.8595C196.112 52.8936 195.495 53.6345 193.437 54.2844C193.242 54.3429 192.833 54.4663 192.269 54.5898C191.275 54.7978 189.788 54.9927 188.042 54.8303C186.075 54.6483 184.562 54.5053 183.543 53.3875C182.082 51.7953 182.887 49.5987 181.926 49.2413C180.946 48.8773 179.985 51.1064 177.966 51.7628C177.368 51.9578 176.745 51.9838 176.122 51.8993C176.089 54.5508 177.342 57.3648 178.167 59.217C179.933 63.1618 181.153 63.2398 181.634 66.1513C182.01 68.4389 181.595 70.499 181.173 72.6241C180.446 76.244 179.719 76.3025 179.556 78.6356C179.284 82.4634 181.024 85.4203 181.407 86.0312C183.374 89.2287 185.322 88.8907 187.178 91.1198C190.788 95.4546 188.509 102.863 185.796 111.695C183.432 119.383 181.049 121.976 180.251 122.795C178.238 124.855 177.829 124.296 173.551 127.65C167.707 132.238 167.61 133.967 163.851 135.513C161.812 136.352 159.864 136.651 158.189 136.787C157.482 136.846 156.819 136.878 156.229 136.898C152.404 137.054 149.574 136.384 148.84 136.202C146.074 135.513 140.705 134.175 140.062 131.114C139.776 129.736 140.62 128.846 139.932 126.863C139.718 126.246 139.315 125.128 138.257 124.543C137.082 123.894 135.771 124.283 134.907 124.543C132.537 125.252 132.544 126.441 129.888 127.507C128.518 128.059 127.116 128.306 126.538 128.41C125.084 128.67 124.642 128.573 123.318 128.924C122.454 129.151 122.311 129.281 120.74 129.827C119.701 130.191 118.494 130.574 117.91 130.73C116.364 131.14 112.495 131.712 110.917 129.931C109.482 128.306 111.417 126.376 110.06 124.517C108.833 122.834 105.82 122.464 101.665 121.95C100.568 121.814 99.1785 121.703 98.1073 120.67C97.445 120.033 96.984 119.117 96.6854 118.532C96.1335 117.447 96.0816 116.953 95.8284 116.394C95.0752 114.711 93.5625 114.808 90.7058 112.975C88.8813 111.806 87.453 110.889 86.4337 109.128C85.4208 107.38 85.7584 106.431 84.5833 105.424C84.3106 105.19 83.8626 104.871 80.8825 104.286C76.4352 103.409 75.8443 103.806 75.6171 104.001C74.7211 104.754 75.4158 105.703 74.4809 107.276C73.2343 109.369 70.6633 109.947 70.4945 109.979C67.9884 110.506 66.3068 109.115 65.5147 109.979C65.0472 110.486 65.3978 111.227 65.5147 112.404C65.8069 115.322 64.1577 116.179 62.9501 120.521C62.4048 122.477 61.9373 124.173 62.236 126.363C62.6125 129.08 63.963 130.971 64.6577 131.92C67.0145 135.143 68.6376 134.597 71.345 138.048C73.2084 140.42 74.0199 142.688 74.1887 143.176C75.1496 145.944 74.5069 146.484 75.3249 148.589C76.5325 151.689 78.2855 151.436 80.3047 154.718C80.8566 155.621 83.3692 159.696 82.0122 162.835C81.2072 164.7 79.7853 164.524 75.8898 166.968C73.5849 168.417 69.4102 171.03 66.6379 175.514C64.9628 178.217 65.3978 179.017 63.5085 181.213C61.6386 183.384 60.3077 183.657 59.0936 185.912C58.5936 186.841 58.3274 188.109 57.8145 190.611C56.7822 195.628 57.003 196.947 55.8213 197.733C54.6332 198.526 52.7439 198.299 51.6921 197.447C50.5883 196.551 51.1077 195.517 49.8417 193.314C49.4521 192.638 48.6665 191.3 47.1408 190.325C46.4526 189.883 44.797 188.823 43.1154 189.168C41.4209 189.519 40.0769 191.787 37.4669 196.304C36.1554 198.578 35.7529 199.521 34.4544 200.476C32.9221 201.607 32.2988 201.165 30.5004 202.172C27.6956 203.745 27.9034 205.552 25.4167 207.261C24.9882 207.56 24.0144 208.171 19.58 208.957C13.029 210.12 12.8732 209.191 10.1658 210.088C6.36113 211.348 2.93307 214.416 1.31643 218.192C0.991803 218.959 0.771055 219.674 0.615234 220.395C2.09553 220.434 3.40054 220.395 4.52375 220.33C6.85457 220.193 9.86062 219.83 10.9449 221.448C11.7564 222.663 10.7501 223.891 11.7824 225.224C12.7238 226.439 13.8795 225.828 15.6909 227.368C16.905 228.401 16.8596 229.071 17.7101 229.259C19.067 229.558 19.7293 227.953 21.1122 228.122C22.5406 228.297 22.3912 230.072 24.1377 230.897C25.4752 231.527 26.0011 230.696 29.9356 230.52C32.143 230.423 32.3832 230.663 33.0844 230.267C34.5842 229.415 35.3438 227.238 35.3503 225.471C35.3568 223.852 34.7271 223.033 35.227 222.572C35.7399 222.091 36.558 222.845 38.5057 222.825C40.2133 222.806 40.46 222.208 41.5312 222.449C43.1154 222.799 43.1024 224.216 44.4269 224.717C46.3227 225.438 47.4459 222.962 50.7312 222.449C53.1594 222.065 55.2824 222.994 57.7886 224.086C61.1257 225.542 61.0219 226.504 63.08 226.738C65.6251 227.024 66.4821 225.639 69.0012 226.231C70.9684 226.692 70.8061 227.628 72.5331 227.999C75.5716 228.655 77.422 226.062 79.4542 226.543C79.5386 226.562 79.6295 226.582 79.7204 226.614C80.3761 226.855 81.1358 227.472 81.7266 229.045C82.7005 229.155 83.499 229.285 83.973 229.37C87.0634 229.896 86.7453 230.377 88.8294 230.585C94.2702 231.125 95.8933 227.791 100.133 228.713C101.763 229.071 103.087 230.104 105.736 232.171C108.008 233.945 109.93 235.446 111.274 238.026C112.78 240.918 111.8 241.783 113.352 243.882C114.916 246 116.118 245.389 118.825 247.853C119.526 248.489 121.649 250.53 122.98 253.708C123.331 254.553 123.72 256.165 124.493 259.375C125.428 263.281 125.512 264.145 126.382 264.665C128.038 265.653 129.862 263.775 131.291 264.854C132.362 265.659 132.628 267.681 131.855 268.636C130.823 269.916 128.259 268.863 128.077 269.39C127.824 270.144 132.55 273.815 136.193 272.412C137.361 271.963 137.92 271.183 139.776 268.629C143.049 264.132 144.685 261.884 144.873 261.637C148.093 257.425 151.495 254.813 153.937 252.941C156.605 250.894 157.014 250.965 160.169 248.782C165.928 244.798 166.383 243.303 171.687 239.144C175.076 236.486 179.206 233.243 185.283 230.644C189.73 228.739 190.509 229.194 196.404 226.601C201.553 224.34 202.053 223.508 205.085 222.812C208.169 222.104 210.928 222.416 216.434 223.033C222.498 223.716 225.523 224.054 229.341 225.704C231.698 226.725 233.581 228.018 237.353 230.605C240.229 232.58 242.975 234.465 246.033 237.285C246.053 237.305 246.072 237.318 246.092 237.337C252.13 242.933 251.085 244.551 254.714 246.416C259.155 248.697 261.258 246.546 266.511 249.087C268.855 250.225 268.653 250.758 273.185 254.436C281.45 261.143 282.411 259.596 286.982 264.236C290.76 268.07 291.741 270.78 294.974 271.196C296.402 271.378 298.104 271.086 300.168 272.204C301.123 272.717 301.447 273.153 303.018 274.719C305.518 277.208 307.115 278.807 309.05 280.087C310.92 281.328 312.53 281.893 314.075 282.433C317.834 283.752 319.178 283.349 321.944 284.279C324.483 285.13 325.437 286.17 328.813 288.639C331.203 290.388 336.156 294.014 341.876 296.685C346.817 298.992 351.635 300.266 353.433 300.708C357.504 301.715 358.634 301.566 361.471 302.722C365.042 304.172 365.749 305.413 370.015 308.253C378.033 313.595 379.702 311.983 382.877 315.675C385.922 319.223 384.675 321.043 388.252 324.974C390.155 327.067 394.511 330.94 396.719 329.777C399.725 328.191 395.251 319.119 400.03 314.303C402.114 312.204 403.718 313.166 405.185 310.989C407.061 308.188 405.023 305.712 404.815 298.095L404.802 298.128ZM144.918 193.477C144.918 193.477 144.938 193.496 144.951 193.503C144.944 193.496 144.931 193.483 144.918 193.477ZM144.769 193.295C144.769 193.295 144.789 193.321 144.795 193.334C144.789 193.321 144.776 193.308 144.769 193.295ZM145.1 193.626C145.1 193.626 145.113 193.633 145.12 193.639C145.12 193.639 145.107 193.633 145.1 193.626ZM147.353 194.484C147.249 194.439 147.152 194.4 147.055 194.361C147.152 194.4 147.256 194.439 147.353 194.484ZM233.003 176.606C232.879 176.528 232.75 176.456 232.594 176.378C233.451 176.788 233.769 177.249 234.243 177.697C233.853 177.327 233.561 176.95 232.996 176.606H233.003ZM234.762 178.12C234.762 178.12 234.71 178.087 234.684 178.068C234.71 178.087 234.736 178.1 234.762 178.12ZM234.444 177.879C234.405 177.847 234.373 177.814 234.334 177.788C234.366 177.821 234.405 177.853 234.444 177.879ZM235.1 178.321C235.1 178.321 235.139 178.341 235.158 178.354C235.139 178.341 235.119 178.334 235.1 178.321Z" stroke="white" stroke-miterlimit="10"/>
</svg>
