<svg width="45" height="45" viewBox="0 0 45 45" fill="none" xmlns="http://www.w3.org/2000/svg">
<path d="M8.70633 22.0223L14.7911 11.712C14.3001 10.6629 14.0196 9.4934 14.0196 8.25513C14.0196 3.69761 17.7897 0 22.4366 0C27.0834 0 30.8536 3.69761 30.8536 8.25513C30.8536 9.48481 30.5818 10.6543 30.082 11.712L33.9749 18.3075C31.9495 20.5432 29.2666 22.1857 26.2242 22.9338L22.4453 16.5017L16.4745 26.6142C18.3596 27.1989 20.3586 27.5171 22.4453 27.5171C28.6441 27.5171 34.1765 24.7052 37.78 20.2939C38.7533 19.1072 40.5156 18.918 41.7255 19.8639C42.9355 20.8098 43.1284 22.5468 42.1639 23.7335C37.5433 29.3917 30.4239 33.0205 22.4541 33.0205C19.3503 33.0205 16.3693 32.4702 13.625 31.4641L8.65373 39.874C8.24164 40.5705 7.62791 41.1381 6.89142 41.4992L2.03411 43.8812C1.59572 44.0962 1.07843 44.0704 0.666346 43.821C0.254263 43.5716 0 43.1245 0 42.6515V37.8876C0 37.1653 0.19289 36.4516 0.569901 35.8152L5.83052 26.898C4.70826 25.9349 3.67367 24.8772 2.73552 23.7335C1.76231 22.5468 1.96397 20.8184 3.17391 19.8639C4.38385 18.9094 6.14616 19.1072 7.11938 20.2939C7.61914 20.9044 8.15397 21.4805 8.7151 22.0223H8.70633ZM33.4137 35.0757C36.2632 33.9578 38.8848 32.41 41.2082 30.5268L44.3295 35.8152C44.6978 36.443 44.8994 37.1567 44.8994 37.8876V42.6515C44.8994 43.1245 44.6452 43.5716 44.2331 43.821C43.821 44.0704 43.3037 44.0962 42.8653 43.8812L38.008 41.4992C37.2715 41.1381 36.6578 40.5705 36.2457 39.874L33.4137 35.0757ZM22.4453 11.0068C23.9972 11.0068 25.251 9.77717 25.251 8.25513C25.251 6.73309 23.9972 5.50342 22.4453 5.50342C20.8934 5.50342 19.6397 6.73309 19.6397 8.25513C19.6397 9.77717 20.8934 11.0068 22.4453 11.0068Z" fill="#FE9F5D"/>
</svg>
