<svg width="59" height="59" viewBox="0 0 59 59" fill="none" xmlns="http://www.w3.org/2000/svg">
<path d="M40.6248 5.88879C39.8097 5.99869 39.0496 6.45658 38.5734 7.18006C37.9507 8.1325 37.9323 9.38714 38.5368 10.3487C39.0496 11.1638 39.9563 11.5118 40.7164 12.043C41.4032 12.5192 42.3282 13.2518 43.2531 14.2592C45.0847 16.2465 46.8705 19.232 46.8705 23.4446C46.8705 25.0656 48.1801 26.3752 49.8011 26.3752C51.4221 26.3752 52.7317 25.0656 52.7317 23.4446C52.7317 17.4004 50.1216 13.0595 47.5574 10.2846C46.2844 8.90177 45.0115 7.89439 44.0499 7.23501C43.0425 6.53901 41.8978 5.71479 40.6065 5.88879H40.6248ZM27.8402 17.5835C22.5652 17.5835 18.2152 21.5764 17.6474 26.6957C17.4734 28.3075 16.0173 29.4614 14.4146 29.2874C12.812 29.1134 11.6489 27.6573 11.8229 26.0547C12.7113 17.9956 19.5431 11.7224 27.8402 11.7224C36.7418 11.7224 43.9583 18.9389 43.9583 27.8405C43.9583 32.0532 42.3373 35.8903 39.6907 38.766C38.5917 39.9565 38.0972 41.0371 38.0972 41.9438V42.5024C38.0972 48.1712 33.509 52.7594 27.8402 52.7594C26.2193 52.7594 24.9097 51.4498 24.9097 49.8288C24.9097 48.2078 26.2193 46.8982 27.8402 46.8982C30.2671 46.8982 32.2361 44.9293 32.2361 42.5024V41.9438C32.2361 38.9308 33.8296 36.4856 35.3864 34.8005C37.0715 32.969 38.0972 30.5329 38.0972 27.8496C38.0972 22.1808 33.509 17.5927 27.8402 17.5927V17.5835ZM5.86108 49.8196C5.86108 48.1987 7.17068 46.8891 8.79164 46.8891C10.4126 46.8891 11.7222 48.1987 11.7222 49.8196C11.7222 51.4406 10.4126 52.7502 8.79164 52.7502C7.17068 52.7502 5.86108 51.4406 5.86108 49.8196ZM20.5139 41.028C22.1348 41.028 23.4444 39.7184 23.4444 38.0974C23.4444 36.4765 22.1348 35.1669 20.5139 35.1669C18.8929 35.1669 17.5833 36.4765 17.5833 38.0974C17.5833 39.7184 18.8929 41.028 20.5139 41.028ZM13.7919 38.9583C12.6472 37.8135 10.7881 37.8135 9.64333 38.9583C8.49858 40.103 8.49858 41.9621 9.64333 43.1068L15.5044 48.968C16.6492 50.1127 18.5083 50.1127 19.653 48.968C20.7978 47.8232 20.7978 45.9641 19.653 44.8194L13.7919 38.9583ZM27.8402 24.9099C26.2193 24.9099 24.9097 26.2195 24.9097 27.8405C24.9097 29.0585 23.9298 30.0384 22.7118 30.0384C21.4938 30.0384 20.5139 29.0585 20.5139 27.8405C20.5139 23.7927 23.7924 20.5141 27.8402 20.5141C31.8881 20.5141 35.1666 23.7927 35.1666 27.8405C35.1666 29.0585 34.1867 30.0384 32.9687 30.0384C31.7507 30.0384 30.7708 29.0585 30.7708 27.8405C30.7708 26.2195 29.4612 24.9099 27.8402 24.9099Z" fill="#FE9F5D"/>
</svg>
