<svg width="370" height="400" viewBox="0 0 370 400" fill="none" xmlns="http://www.w3.org/2000/svg">
<path d="M369.206 192.986C369.095 192.804 368.758 192.362 366.557 192.174C364.531 191.998 363.525 192.252 361.674 192.375C359.123 192.544 357.136 192.31 355.974 192.174C352.799 191.797 352.838 191.296 351.702 191.361C347.209 191.621 347.384 199.407 339.898 206.439C338.399 207.842 336.581 209.233 335.626 211.937C334.633 214.744 335.133 217.357 334.607 217.435C334.133 217.506 333.834 215.336 332.367 212.951C330.166 209.383 326.647 207.479 326.264 207.856C325.868 208.245 328.828 210.975 328.095 212.132C327.556 212.983 325.725 211.865 321.375 211.722C318.064 211.612 316.635 212.177 314.454 211.111C313.935 210.858 313.039 210.416 312.214 209.48C310.76 207.83 311.26 206.582 310.182 205.815C308.611 204.704 306.592 206.64 305.299 205.613C304.228 204.762 304.196 202.305 305.299 201.129C306.793 199.543 310.221 200.46 312.221 201.539C315.415 203.261 315.688 205.808 318.122 206.224C319.797 206.51 321.362 205.594 322.394 204.801C317.434 202.76 314.525 199.985 312.987 198.231C311.811 196.885 310.474 194.455 307.793 189.594C304.267 183.192 304.189 182.055 304.215 181.288C304.3 178.494 305.773 176.512 304.54 174.451C303.969 173.496 303.482 173.639 302.748 172.495C301.579 170.669 301.982 168.979 301.774 167.283C301.579 165.704 300.768 163.475 297.872 160.934C300.248 160.882 302.235 161.057 303.728 161.259C307.137 161.72 309.046 162.006 310.234 163.54C311.136 164.703 311.617 166.562 310.883 167.446C309.812 168.739 306.702 167.244 306.494 167.771C306.26 168.362 309.656 171.533 313 170.539C313.227 170.474 315.051 169.896 315.928 168.096C317.298 165.282 314.973 162.305 314.792 162.071C313.766 160.797 312.467 160.193 310.24 159.465C302.995 157.1 301.099 158.373 297.262 156.196C294.834 154.825 293.334 153.038 292.1 151.575C291.107 150.399 290.587 149.554 287.75 144.232C283.868 136.94 283.498 135.991 283.4 134.438C283.251 131.975 284.004 131.26 284.757 127.64C285.913 122.097 284.939 119.991 285.302 116.215C286.27 106.032 295.593 97.6675 300.521 89.2905C300.904 88.6341 301.716 87.2174 302.151 85.2092C302.553 83.3766 302.443 81.9728 302.423 81.4009C302.164 74.9801 307.871 67.019 308.676 65.8947C311.182 62.3983 311.915 62.7102 312.753 60.4551C314.123 56.7638 313.181 53.2154 312.208 49.5761C311.234 45.9237 310.305 45.2413 309.76 44.9554C309.727 44.9359 309.688 44.9294 309.649 44.9099C308.065 44.1365 305.741 44.4615 304.598 45.7742C302.995 47.6004 304.923 49.9205 303.241 52.2991C302.183 53.8003 301.073 53.3649 299.709 55.0221C298.314 56.7118 298.391 58.4665 298.08 60.1887C297.418 63.789 295.249 66.0831 291.561 69.9825C288.101 73.6348 285.776 74.6421 282.595 77.0532C276.174 81.9273 276.654 84.6633 268.195 95.003C262.416 102.061 259.527 105.59 254.71 108.722C246.451 114.084 238.264 114.987 234.953 115.312C233.271 115.481 225.941 114.324 211.359 112.017C211.359 112.017 199.082 110.074 192.109 104.634C191.316 104.017 190.278 103.211 189.96 101.866C189.602 100.365 190.414 99.3962 189.726 98.3239C189.141 97.4141 188.356 97.8105 187.726 96.9397C186.94 95.8544 187.765 94.6846 187.609 92.1435C187.544 91.0322 187.317 90.1419 187.142 89.57C185.272 89.1801 183.402 88.7901 181.532 88.4002C183.279 92.319 182.467 96.5822 179.779 98.8178C177.65 100.586 173.936 101.424 171.709 99.6367C169.099 97.5376 170.125 93.0924 170.423 91.7926C170.956 89.4725 172.111 87.8218 172.878 86.8924C168.365 86.2296 162.055 85.1118 154.582 83.1816C152.043 82.5252 144.771 80.5886 144.642 80.9915C144.492 81.4724 154.919 83.7145 155.14 87.7113C155.224 89.284 153.738 91.1037 152.303 91.3117C151.92 91.3637 151.361 91.3312 148.706 89.7C147.109 88.7186 146.511 88.2442 145.966 87.8998C143.064 86.1061 140.35 87.4968 131.968 87.6138C130.962 87.6268 130.157 87.6203 129.696 87.6138C129.572 85.9891 129.131 83.9095 127.709 82.1223C125.885 79.8347 123.385 79.2043 123.547 77.9565C123.625 77.3391 124.424 76.9037 126.008 76.0654C128.54 74.7201 130.066 74.5771 130.072 74.0767C130.072 73.5633 128.495 73.2059 126.501 72.6665C126.501 72.6665 122.606 71.6072 119.009 70.2944C113.795 68.3902 114.049 67.1945 111.523 67.149C108.413 67.097 106.686 68.8906 105.336 67.8638C104.329 67.097 104.998 65.8687 104.381 64.2895C102.804 60.2342 95.9929 62.1903 91.6039 57.6671C88.968 54.9441 90.4158 53.1959 87.0656 49.875C85.91 48.7312 84.9686 48.1723 80.7484 45.8067C75.853 43.0642 73.4053 41.693 72.6262 41.29C67.9581 38.879 61.3876 33.8813 46.4483 19.155C41.9035 14.6773 36.0537 8.76981 29.3534 1.62758C29.2301 1.45861 29.0937 1.27663 28.9509 1.08167C27.8342 4.50006 26.263 5.9623 24.8995 6.63818C24.3931 6.89164 24.497 6.74217 20.3872 8.14592C17.1474 9.25072 16.4528 9.55617 15.6607 10.0826C14.1089 11.1159 14.3816 11.5318 12.4403 13.306C11.2392 14.4043 9.29146 16.146 6.42825 16.9584C6.2919 16.9973 6.1556 17.0363 6.01925 17.0753C6.7594 20.1818 6.42825 21.8 5.8634 22.7098C5.72056 22.9373 5.31156 23.5287 4.92201 24.458C4.27276 25.9982 4.38959 26.7976 4.1169 27.9544C3.52608 30.437 2.16266 30.125 1.1628 32.9325C0.695341 34.2388 0.643399 35.2916 0.552503 37.0138C0.461607 38.7425 0.429154 39.6263 0.968035 40.2567C1.59132 40.9846 2.57169 41.0561 4.20781 41.1731C5.36348 41.2511 6.44775 41.329 7.59044 40.8026C8.28514 40.4842 8.7396 40.0553 9.75892 38.853C12.4533 35.6685 12.6481 34.6352 13.6545 34.4143C14.3881 34.2518 15.5633 34.5182 17.4137 36.7018C20.4132 36.9228 23.4128 37.1503 26.4123 37.3712C26.3928 38.3071 26.5357 39.4963 27.3213 40.4062C28.0744 41.277 28.8795 41.2835 29.0093 41.9269C29.1911 42.8368 27.6654 43.2592 26.7304 44.9619C25.6527 46.9375 26.1526 49.2056 26.224 49.5176C26.672 51.4347 27.7628 51.9092 27.7433 53.7353C27.7303 54.6127 27.4771 55.0611 27.2823 55.7435C26.6331 58.0051 27.4381 60.1172 28.5159 62.8467C29.9702 66.5251 30.7104 66.1806 32.2231 70.1059C33.1061 72.4 33.4632 74.1157 33.6126 74.8956C33.7749 75.7469 33.8722 76.8582 34.0735 79.0678C34.3397 81.9988 34.2683 82.3108 34.0735 82.6227C33.0801 84.2084 30.4896 83.3766 29.9053 84.6309C29.4184 85.6837 30.9311 86.9249 32.0673 89.1086C32.9698 90.8502 33.1191 92.202 33.4567 96.3678C34.0865 104.127 34.2358 107.552 35.1772 112.173C35.8849 115.643 36.5796 117.522 38.2158 118.49C39.0208 118.964 40.3258 119.101 42.9423 119.367C46.5587 119.738 47.604 119.471 48.8505 120.42C49.0583 120.582 50.5191 121.713 50.5581 123.312C50.597 124.826 49.3115 125.067 48.8505 126.997C48.474 128.557 48.9414 129.934 49.5063 131.598C50.2659 133.84 50.7918 133.736 51.2138 135.146C52.2851 138.714 49.292 140.534 50.2919 144.219C50.3893 144.583 50.9087 146.363 52.5253 147.637C54.7198 149.372 57.4921 149.047 58.3037 148.95C60.4527 148.697 60.7709 147.91 65.1339 146.584C67.614 145.83 68.1853 145.876 68.5489 146.188C69.0878 146.656 69.0488 147.605 68.0815 151.686C66.8803 156.749 66.6271 156.619 66.6791 157.756C66.8479 161.272 69.2566 162.169 68.5424 164.294C67.9581 166.029 66.1791 165.918 65.0429 168.498C64.5235 169.668 64.7638 169.993 64.53 170.78C64.4846 170.936 64.4326 171.098 64.3417 171.299C63.2835 173.672 61.3941 173.347 58.7452 175.966C56.5182 178.169 56.9078 179.326 55.012 180.17C53.5706 180.807 52.7396 180.411 51.5125 181.34C50.0387 182.458 50.4347 183.647 49.4154 184.141C48.2727 184.687 47.0781 183.55 42.4164 180.872C40.235 179.618 38.7936 178.897 36.8198 178.539C35.794 178.351 33.8917 178.032 33.0866 179.007C32.4958 179.729 33.0866 180.45 32.6192 181.34C31.8011 182.919 29.2495 181.997 27.2563 183.205C24.8671 184.655 26.2955 187.345 23.9906 191.374C22.1208 194.65 20.5366 193.993 16.9916 198.614C14.901 201.344 13.674 202.994 13.8817 205.145C14.1934 208.343 17.4721 210.54 18.2642 211.066C21.1274 212.983 23.9841 213.068 23.9646 213.919C23.9451 214.653 21.8286 214.569 20.8937 216.116C20.1795 217.298 20.7703 218.416 21.1144 220.502C21.6987 224.031 20.569 224.155 20.6729 229.939C20.6989 231.446 20.7314 233.156 21.1144 235.424C21.6338 238.524 22.2116 239.147 22.4324 241.786C22.6012 243.807 22.7375 245.464 21.9909 247.271C20.8417 250.059 19.0173 249.78 18.4849 251.879C17.8162 254.511 20.5366 255.564 20.4587 259.56C20.4457 260.171 20.4002 262.686 18.7057 264.389C18.6148 264.48 18.5174 264.558 18.42 264.642C21.6857 267.002 22.348 268.821 22.2831 270.088C22.2052 271.609 21.0949 272.753 21.6728 274.469C22.0493 275.593 22.7505 275.69 23.0946 277.016C23.3024 277.809 23.166 278.206 22.9907 279.869C22.731 282.293 22.6077 283.509 22.7895 284.555C23.153 286.641 24.101 287.128 23.7049 288.123C23.2829 289.189 22.0623 288.909 20.8547 290.059C19.712 291.145 19.5367 292.607 19.2251 295.252C18.7836 299.015 19.5497 300.068 18.5109 301.361C17.4721 302.654 16.193 302.238 15.5633 303.499C14.8231 304.981 15.9009 306.924 16.3748 307.775C18.3421 311.311 20.7118 310.758 21.7701 313.176C23.179 316.386 19.4977 318.505 20.9586 322.242C21.6338 323.977 23.179 325.446 24.9709 327.142C26.659 328.741 27.0745 328.695 27.7368 329.78C29.0742 331.99 28.029 333.309 29.3729 335.187C30.5286 336.806 31.5544 336.169 32.5153 337.702C33.8008 339.756 32.2946 341.446 33.645 343.233C34.6449 344.565 35.7421 343.98 36.5342 345.248C37.6314 346.996 35.807 348.53 36.7874 350.908C37.3003 352.156 38.443 353.267 39.6766 353.8C41.0011 354.372 41.6049 353.924 42.819 354.677C43.241 354.944 43.4552 355.178 44.8317 356.816C45.9614 358.167 46.5327 358.843 46.7145 359.077C49.0129 361.982 49.6621 362.619 50.61 363.854C52.1098 365.816 51.7462 365.895 55.0055 371.776C57.8817 376.962 58.7062 377.898 60.0307 378.314C61.4331 378.756 62.5044 378.346 63.5497 379.321C64.543 380.244 64.1535 381.147 65.0559 382.59C65.835 383.831 66.5622 383.851 68.6982 385.359C70.7824 386.821 72.1328 388.244 73.2235 389.381C75.3596 391.617 75.2298 392.176 76.6127 393.625C79.372 396.511 82.852 397.401 84.8907 397.921C86.6761 398.376 88.3447 398.545 89.851 398.564C89.825 394.372 90.5781 394.353 90.234 390.545C89.7081 384.78 87.8578 383.441 87.6565 379.497C87.3903 374.252 90.3314 370.229 92.0714 367.708C102.434 352.721 100.129 348.107 115.99 326.817C122.275 318.381 120.223 322.346 152.147 289.325C153.64 287.785 155.198 286.167 156.841 284.457C156.841 284.457 172.267 268.418 188.986 262.283C195.926 259.736 200.049 260.776 201.834 261.413C203.957 262.166 204.022 262.79 208.587 265.552C214.313 269.023 217.176 270.751 220.345 270.998C224.338 271.31 224.117 269.419 231.233 268.6C235.602 268.093 239.998 268.308 241.251 268.379C244.289 268.555 246.068 268.88 249.308 268.6C250.217 268.522 255.307 268.035 255.404 266.859C255.469 266.079 253.288 265.955 251.048 263.811C250.496 263.278 247.983 260.873 248.438 258.579C248.736 257.071 250.022 257.052 252.794 254.654C256.579 251.385 256.586 249.364 258.891 248.987C261.014 248.642 262.585 250.098 263.462 249.208C264.202 248.454 263.39 247.115 264.332 246.153C264.903 245.575 265.727 245.536 266.507 245.497C268.389 245.412 269.785 246.309 270.207 246.589C270.701 246.914 273.09 248.493 272.817 250.079C272.707 250.741 272.162 251.216 268.682 252.912C264.767 254.816 263.961 254.94 263.89 255.525C263.715 256.967 268.227 259.021 272.382 259.664C274.707 260.022 280.121 260.86 282.615 257.923C284.251 255.992 283.14 254.199 285.225 252.256C286.919 250.676 288.373 251.177 289.581 249.422C290.75 247.719 290.133 246.14 291.107 245.718C292.262 245.217 293.405 247.342 295.243 247.024C296.541 246.803 297.814 245.419 297.638 244.412C297.353 242.793 293.554 243.346 292.451 241.058C291.47 239.024 293.386 236.359 293.671 235.963C294.645 234.611 296.703 232.759 298.762 233.11C300.196 233.357 300.268 234.436 301.813 234.741C302.261 234.832 303.319 234.949 306.293 233.318C309.448 231.583 309.468 230.777 311.584 229.854C312.818 229.315 313.409 229.334 314.824 229.159C315.363 229.094 316.012 228.996 316.876 228.84C320.44 228.164 321.349 227.469 323.998 226.806C326.16 226.26 329.354 225.766 333.562 226.195C334.445 227.417 335.328 228.639 336.21 229.861C337.925 226.455 339.087 223.446 339.872 221.1C340.833 218.247 341.307 216.817 341.502 215.394C341.898 212.418 341.476 210.442 342.521 209.896C343.541 209.357 344.553 210.942 345.78 210.507C347.787 209.786 346.702 204.944 349.04 203.781C350.02 203.293 350.501 203.995 352.299 203.982C355.052 203.963 355.753 202.305 359.421 200.518C363.648 198.465 365.148 199.485 367.362 197.256C368.576 196.034 369.816 194.019 369.193 192.98L369.206 192.986ZM230.726 171.144C230.661 171.066 230.603 170.988 230.544 170.91C230.603 170.988 230.668 171.066 230.726 171.144ZM230.096 170.201C230.057 170.123 230.018 170.052 229.98 169.974C230.018 170.052 230.057 170.13 230.096 170.201ZM229.837 169.668C229.811 169.603 229.785 169.538 229.759 169.467C229.785 169.532 229.811 169.603 229.837 169.668ZM229.577 164.079C229.629 163.917 229.694 163.754 229.765 163.598C229.694 163.754 229.635 163.917 229.577 164.079ZM229.622 169.109C229.609 169.07 229.596 169.031 229.59 168.999C229.603 169.038 229.609 169.077 229.622 169.109ZM162.282 189.21C162.282 189.21 162.236 189.191 162.217 189.178C162.243 189.191 162.262 189.197 162.282 189.21ZM161.405 188.801C161.347 188.775 161.295 188.749 161.23 188.723C161.288 188.749 161.347 188.775 161.405 188.801ZM160.204 188.3C160.133 188.274 160.068 188.242 159.99 188.216C160.068 188.248 160.133 188.274 160.204 188.3ZM230.882 171.325C230.953 171.403 231.025 171.475 231.103 171.546C231.031 171.475 230.953 171.403 230.882 171.325ZM231.661 172.001C231.804 172.092 231.947 172.177 232.096 172.248C231.947 172.177 231.797 172.092 231.661 172.001ZM231.252 171.689C231.336 171.767 231.427 171.832 231.518 171.897C231.427 171.832 231.336 171.761 231.252 171.689Z" fill="#EA6300"/>
<path d="M230.389 170.689C230.337 170.611 230.285 170.533 230.239 170.448M161.879 189.015C161.834 188.996 161.795 188.976 161.749 188.957M160.853 188.567C160.782 188.534 160.717 188.508 160.646 188.476M369.206 192.986C369.095 192.804 368.758 192.362 366.557 192.174C364.531 191.998 363.525 192.252 361.674 192.375C359.123 192.544 357.136 192.31 355.974 192.174C352.799 191.797 352.838 191.296 351.702 191.361C347.209 191.621 347.384 199.407 339.898 206.439C338.399 207.842 336.581 209.233 335.626 211.937C334.633 214.744 335.133 217.357 334.607 217.435C334.133 217.506 333.834 215.336 332.367 212.951C330.166 209.383 326.647 207.479 326.264 207.856C325.868 208.245 328.828 210.975 328.095 212.132C327.556 212.983 325.725 211.865 321.375 211.722C318.064 211.612 316.635 212.177 314.454 211.111C313.935 210.858 313.039 210.416 312.214 209.48C310.76 207.83 311.26 206.582 310.182 205.815C308.611 204.704 306.592 206.64 305.3 205.613C304.228 204.762 304.196 202.305 305.3 201.129C306.793 199.543 310.221 200.46 312.221 201.539C315.415 203.261 315.688 205.808 318.122 206.224C319.797 206.51 321.362 205.594 322.394 204.801C317.434 202.76 314.525 199.985 312.987 198.231C311.812 196.885 310.474 194.455 307.793 189.594C304.267 183.192 304.189 182.055 304.215 181.288C304.3 178.494 305.773 176.512 304.54 174.451C303.969 173.496 303.482 173.639 302.748 172.495C301.579 170.669 301.982 168.979 301.774 167.283C301.579 165.704 300.768 163.475 297.872 160.934C300.248 160.882 302.235 161.057 303.728 161.259C307.137 161.72 309.046 162.006 310.234 163.54C311.136 164.703 311.617 166.562 310.883 167.446C309.812 168.739 306.702 167.244 306.494 167.771C306.26 168.362 309.656 171.533 313 170.539C313.227 170.474 315.051 169.896 315.928 168.096C317.298 165.282 314.973 162.305 314.792 162.071C313.766 160.797 312.467 160.193 310.24 159.465C302.995 157.1 301.099 158.373 297.262 156.196C294.834 154.825 293.334 153.038 292.1 151.575C291.107 150.399 290.587 149.554 287.75 144.232C283.868 136.94 283.498 135.991 283.4 134.438C283.251 131.975 284.004 131.26 284.757 127.64C285.913 122.097 284.939 119.991 285.302 116.215C286.27 106.032 295.593 97.6675 300.521 89.2905C300.904 88.6341 301.716 87.2174 302.151 85.2092C302.553 83.3766 302.443 81.9728 302.423 81.4009C302.164 74.9801 307.871 67.019 308.676 65.8947C311.182 62.3983 311.915 62.7102 312.753 60.4551C314.123 56.7638 313.181 53.2154 312.208 49.5761C311.234 45.9237 310.305 45.2413 309.76 44.9554C309.727 44.9359 309.688 44.9294 309.649 44.9099C308.065 44.1365 305.741 44.4615 304.598 45.7742C302.995 47.6004 304.923 49.9205 303.241 52.2991C302.183 53.8003 301.073 53.3649 299.709 55.0221C298.314 56.7118 298.391 58.4665 298.08 60.1887C297.418 63.789 295.249 66.0831 291.561 69.9825C288.101 73.6348 285.776 74.6421 282.595 77.0532C276.174 81.9273 276.654 84.6633 268.195 95.003C262.416 102.061 259.527 105.59 254.71 108.722C246.451 114.084 238.264 114.987 234.953 115.312C233.271 115.481 225.941 114.324 211.359 112.017C211.359 112.017 199.082 110.074 192.109 104.634C191.316 104.017 190.278 103.211 189.959 101.866C189.602 100.365 190.414 99.3962 189.726 98.3239C189.141 97.4141 188.356 97.8105 187.726 96.9397C186.94 95.8544 187.765 94.6846 187.609 92.1435C187.544 91.0322 187.317 90.1419 187.142 89.57C185.272 89.1801 183.402 88.7901 181.532 88.4002C183.279 92.319 182.467 96.5822 179.779 98.8178C177.65 100.586 173.936 101.424 171.709 99.6367C169.099 97.5376 170.125 93.0924 170.423 91.7926C170.956 89.4725 172.111 87.8218 172.878 86.8924C168.365 86.2296 162.055 85.1118 154.582 83.1816C152.043 82.5252 144.771 80.5886 144.642 80.9915C144.492 81.4724 154.919 83.7145 155.14 87.7113C155.224 89.284 153.738 91.1037 152.303 91.3117C151.92 91.3637 151.361 91.3312 148.706 89.7C147.109 88.7186 146.511 88.2442 145.966 87.8998C143.064 86.1061 140.35 87.4968 131.968 87.6138C130.962 87.6268 130.157 87.6203 129.696 87.6138C129.572 85.9891 129.131 83.9095 127.709 82.1223C125.885 79.8347 123.385 79.2043 123.547 77.9565C123.625 77.3391 124.424 76.9037 126.008 76.0654C128.54 74.7201 130.066 74.5771 130.072 74.0767C130.072 73.5633 128.495 73.2059 126.501 72.6665C126.501 72.6665 122.606 71.6072 119.009 70.2944C113.795 68.3902 114.049 67.1945 111.523 67.149C108.413 67.097 106.686 68.8906 105.336 67.8638C104.329 67.097 104.998 65.8687 104.381 64.2895C102.804 60.2342 95.9929 62.1903 91.6039 57.6671C88.968 54.9441 90.4158 53.1959 87.0656 49.875C85.91 48.7312 84.9686 48.1723 80.7484 45.8067C75.853 43.0642 73.4053 41.693 72.6262 41.29C67.9581 38.879 61.3876 33.8813 46.4483 19.155C41.9035 14.6773 36.0537 8.76981 29.3534 1.62758C29.2301 1.45861 29.0937 1.27663 28.9509 1.08167C27.8342 4.50006 26.263 5.9623 24.8995 6.63818C24.3931 6.89164 24.497 6.74217 20.3872 8.14592C17.1474 9.25072 16.4528 9.55617 15.6607 10.0826C14.1089 11.1159 14.3816 11.5318 12.4403 13.306C11.2392 14.4043 9.29146 16.146 6.42825 16.9584C6.2919 16.9973 6.1556 17.0363 6.01925 17.0753C6.7594 20.1818 6.42825 21.8 5.8634 22.7098C5.72056 22.9373 5.31156 23.5287 4.92201 24.458C4.27276 25.9982 4.38959 26.7976 4.1169 27.9544C3.52608 30.437 2.16266 30.125 1.1628 32.9325C0.695341 34.2388 0.643399 35.2916 0.552503 37.0138C0.461607 38.7425 0.429154 39.6263 0.968035 40.2567C1.59132 40.9846 2.57169 41.0561 4.20781 41.1731C5.36348 41.2511 6.44775 41.329 7.59044 40.8026C8.28514 40.4842 8.7396 40.0553 9.75892 38.853C12.4533 35.6685 12.6481 34.6352 13.6544 34.4143C14.3881 34.2518 15.5633 34.5182 17.4137 36.7018C20.4132 36.9228 23.4128 37.1503 26.4123 37.3712C26.3928 38.3071 26.5357 39.4963 27.3213 40.4062C28.0744 41.277 28.8795 41.2835 29.0093 41.9269C29.1911 42.8368 27.6654 43.2592 26.7304 44.9619C25.6527 46.9375 26.1526 49.2056 26.224 49.5176C26.672 51.4347 27.7628 51.9092 27.7433 53.7353C27.7303 54.6127 27.4771 55.0611 27.2823 55.7435C26.6331 58.0051 27.4381 60.1172 28.5159 62.8467C29.9702 66.5251 30.7104 66.1806 32.2231 70.1059C33.1061 72.4 33.4632 74.1157 33.6126 74.8956C33.7749 75.7469 33.8722 76.8582 34.0735 79.0678C34.3397 81.9988 34.2683 82.3108 34.0735 82.6227C33.0801 84.2084 30.4896 83.3766 29.9053 84.6309C29.4184 85.6837 30.9311 86.9249 32.0673 89.1086C32.9698 90.8502 33.1191 92.202 33.4567 96.3678C34.0865 104.127 34.2358 107.552 35.1772 112.173C35.8849 115.643 36.5796 117.522 38.2158 118.49C39.0208 118.964 40.3258 119.101 42.9423 119.367C46.5587 119.738 47.604 119.471 48.8505 120.42C49.0583 120.582 50.5191 121.713 50.5581 123.312C50.597 124.826 49.3115 125.067 48.8505 126.997C48.474 128.557 48.9414 129.934 49.5063 131.598C50.2659 133.84 50.7918 133.736 51.2138 135.146C52.2851 138.714 49.292 140.534 50.2919 144.219C50.3893 144.583 50.9087 146.363 52.5253 147.637C54.7198 149.372 57.4921 149.047 58.3037 148.95C60.4527 148.696 60.7709 147.91 65.1338 146.584C67.614 145.83 68.1854 145.876 68.5489 146.188C69.0878 146.656 69.0488 147.605 68.0814 151.686C66.8803 156.749 66.6271 156.619 66.6791 157.756C66.8479 161.272 69.2566 162.169 68.5424 164.294C67.9581 166.029 66.1791 165.918 65.0429 168.498C64.5235 169.668 64.7638 169.993 64.53 170.78C64.4846 170.936 64.4326 171.098 64.3417 171.299C63.2835 173.672 61.3941 173.347 58.7452 175.966C56.5182 178.169 56.9078 179.326 55.012 180.17C53.5706 180.807 52.7396 180.411 51.5125 181.34C50.0387 182.458 50.4347 183.647 49.4154 184.141C48.2727 184.687 47.0781 183.55 42.4164 180.872C40.235 179.618 38.7936 178.897 36.8198 178.539C35.794 178.351 33.8917 178.032 33.0866 179.007C32.4958 179.729 33.0866 180.45 32.6192 181.34C31.8011 182.919 29.2495 181.997 27.2563 183.205C24.8671 184.655 26.2955 187.345 23.9906 191.374C22.1208 194.65 20.5366 193.993 16.9916 198.614C14.901 201.344 13.674 202.994 13.8817 205.145C14.1934 208.343 17.4721 210.54 18.2642 211.066C21.1274 212.983 23.9841 213.068 23.9646 213.919C23.9451 214.653 21.8286 214.569 20.8937 216.116C20.1795 217.298 20.7703 218.416 21.1144 220.502C21.6987 224.031 20.569 224.155 20.6729 229.939C20.6989 231.446 20.7314 233.156 21.1144 235.424C21.6338 238.524 22.2116 239.147 22.4324 241.786C22.6012 243.807 22.7375 245.464 21.9909 247.271C20.8417 250.059 19.0173 249.78 18.4849 251.879C17.8162 254.511 20.5366 255.564 20.4587 259.56C20.4457 260.171 20.4002 262.686 18.7057 264.389C18.6148 264.48 18.5174 264.558 18.42 264.642C21.6857 267.002 22.348 268.821 22.2831 270.088C22.2052 271.609 21.0949 272.753 21.6728 274.469C22.0493 275.593 22.7505 275.69 23.0946 277.016C23.3024 277.809 23.166 278.206 22.9907 279.869C22.731 282.293 22.6077 283.509 22.7895 284.555C23.153 286.641 24.101 287.128 23.7049 288.123C23.2829 289.189 22.0623 288.909 20.8547 290.059C19.712 291.145 19.5367 292.607 19.2251 295.252C18.7836 299.015 19.5497 300.068 18.5109 301.361C17.4721 302.654 16.193 302.238 15.5633 303.499C14.8231 304.981 15.9009 306.924 16.3748 307.775C18.3421 311.311 20.7118 310.758 21.7701 313.176C23.179 316.386 19.4977 318.505 20.9586 322.242C21.6338 323.977 23.179 325.446 24.9709 327.142C26.659 328.741 27.0745 328.695 27.7368 329.78C29.0742 331.99 28.029 333.309 29.3729 335.187C30.5286 336.806 31.5544 336.169 32.5153 337.702C33.8008 339.756 32.2946 341.446 33.645 343.233C34.6449 344.565 35.7421 343.98 36.5342 345.248C37.6314 346.996 35.807 348.53 36.7874 350.908C37.3003 352.156 38.443 353.267 39.6766 353.8C41.0011 354.372 41.6049 353.924 42.819 354.677C43.241 354.944 43.4552 355.178 44.8317 356.816C45.9614 358.167 46.5327 358.843 46.7145 359.077C49.0129 361.982 49.6621 362.619 50.61 363.854C52.1098 365.817 51.7462 365.894 55.0055 371.776C57.8817 376.962 58.7062 377.898 60.0307 378.314C61.4331 378.756 62.5044 378.346 63.5497 379.321C64.543 380.244 64.1535 381.147 65.0559 382.59C65.835 383.831 66.5622 383.851 68.6982 385.359C70.7824 386.821 72.1328 388.244 73.2235 389.381C75.3596 391.617 75.2297 392.176 76.6127 393.625C79.372 396.511 82.852 397.401 84.8907 397.921C86.6761 398.376 88.3447 398.545 89.851 398.564C89.825 394.372 90.5781 394.353 90.234 390.545C89.7081 384.78 87.8578 383.441 87.6565 379.497C87.3903 374.252 90.3314 370.229 92.0714 367.708C102.434 352.721 100.129 348.107 115.99 326.817C122.275 318.381 120.223 322.346 152.147 289.325C153.64 287.785 155.198 286.167 156.841 284.457C156.841 284.457 172.267 268.418 188.986 262.283C195.926 259.736 200.049 260.776 201.834 261.413C203.957 262.166 204.022 262.79 208.587 265.552C214.313 269.023 217.176 270.751 220.345 270.998C224.338 271.31 224.117 269.419 231.233 268.6C235.602 268.093 239.998 268.308 241.251 268.379C244.289 268.555 246.068 268.88 249.308 268.6C250.217 268.522 255.307 268.035 255.404 266.859C255.469 266.079 253.288 265.955 251.048 263.811C250.496 263.278 247.983 260.873 248.438 258.579C248.736 257.071 250.022 257.052 252.794 254.654C256.579 251.385 256.586 249.364 258.891 248.987C261.014 248.642 262.585 250.098 263.462 249.208C264.202 248.454 263.39 247.115 264.332 246.153C264.903 245.575 265.727 245.536 266.507 245.497C268.389 245.412 269.785 246.309 270.207 246.589C270.701 246.914 273.09 248.493 272.817 250.079C272.707 250.741 272.162 251.216 268.682 252.912C264.767 254.816 263.962 254.94 263.89 255.525C263.715 256.967 268.227 259.021 272.382 259.664C274.707 260.022 280.121 260.86 282.615 257.923C284.251 255.992 283.14 254.199 285.225 252.256C286.919 250.676 288.373 251.177 289.581 249.422C290.75 247.719 290.133 246.14 291.107 245.718C292.262 245.217 293.405 247.342 295.243 247.024C296.541 246.803 297.814 245.419 297.638 244.412C297.353 242.793 293.554 243.346 292.451 241.058C291.47 239.024 293.386 236.359 293.671 235.963C294.645 234.611 296.703 232.759 298.762 233.11C300.196 233.357 300.268 234.436 301.813 234.741C302.261 234.832 303.319 234.949 306.293 233.318C309.448 231.583 309.468 230.777 311.584 229.854C312.818 229.315 313.409 229.334 314.824 229.159C315.363 229.094 316.012 228.996 316.876 228.84C320.44 228.164 321.349 227.469 323.998 226.806C326.16 226.26 329.354 225.766 333.562 226.195C334.445 227.417 335.328 228.639 336.21 229.861C337.925 226.455 339.087 223.446 339.872 221.1C340.833 218.247 341.307 216.817 341.502 215.394C341.898 212.418 341.476 210.442 342.521 209.896C343.541 209.357 344.553 210.942 345.78 210.507C347.787 209.786 346.702 204.944 349.04 203.781C350.02 203.293 350.501 203.995 352.299 203.982C355.052 203.963 355.753 202.305 359.421 200.518C363.648 198.465 365.148 199.485 367.362 197.256C368.576 196.034 369.816 194.019 369.193 192.98L369.206 192.986ZM230.726 171.144C230.661 171.066 230.603 170.988 230.544 170.91C230.603 170.988 230.668 171.066 230.726 171.144ZM230.096 170.201C230.057 170.123 230.018 170.052 229.98 169.974C230.018 170.052 230.057 170.13 230.096 170.201ZM229.837 169.668C229.811 169.603 229.785 169.538 229.759 169.467C229.785 169.532 229.811 169.603 229.837 169.668ZM229.577 164.079C229.629 163.917 229.694 163.754 229.765 163.598C229.694 163.754 229.635 163.917 229.577 164.079ZM229.622 169.109C229.609 169.07 229.596 169.031 229.59 168.999C229.603 169.038 229.609 169.077 229.622 169.109ZM162.282 189.21C162.282 189.21 162.236 189.191 162.217 189.178C162.243 189.191 162.262 189.197 162.282 189.21ZM161.405 188.801C161.347 188.775 161.295 188.749 161.23 188.723C161.288 188.749 161.347 188.775 161.405 188.801ZM160.204 188.3C160.133 188.274 160.068 188.242 159.99 188.216C160.068 188.248 160.133 188.274 160.204 188.3ZM230.882 171.325C230.953 171.403 231.025 171.475 231.103 171.546C231.031 171.475 230.953 171.403 230.882 171.325ZM231.661 172.001C231.804 172.092 231.947 172.177 232.096 172.248C231.947 172.177 231.797 172.092 231.661 172.001ZM231.252 171.689C231.336 171.767 231.427 171.832 231.518 171.897C231.427 171.832 231.336 171.761 231.252 171.689Z" stroke="white" stroke-miterlimit="10"/>
</svg>
