<svg width="50" height="41" viewBox="0 0 50 41" fill="none" xmlns="http://www.w3.org/2000/svg">
<path d="M40.1406 14.374L43.7952 10.791H46.7791C48.3011 10.791 49.5308 9.58546 49.5308 8.09327V2.69776C49.5308 1.20556 48.3011 0 46.7791 0H19.2276C16.7338 0 14.3003 0.784035 12.2881 2.23408L1.40165 10.0997C-0.128986 11.2041 -0.455752 13.3117 0.67073 14.8124C1.79721 16.313 3.94699 16.6334 5.47763 15.529L15.7707 8.09327H25.4533C26.597 8.09327 27.5171 8.99533 27.5171 10.1166C27.5171 11.2378 26.597 12.1399 25.4533 12.1399H19.262C17.7399 12.1399 16.5103 13.3455 16.5103 14.8377C16.5103 16.3299 17.7399 17.5354 19.262 17.5354H32.3498C35.2649 17.5354 38.0682 16.3973 40.132 14.374H40.1406ZM9.39881 26.0924L5.7356 29.6753H2.75171C1.22967 29.6753 0 30.8809 0 32.3731V37.7686C0 39.2608 1.22967 40.4663 2.75171 40.4663H30.3118C32.8056 40.4663 35.2391 39.6823 37.2513 38.2323L48.1377 30.3666C49.6684 29.2622 49.9952 27.1546 48.8687 25.654C47.7422 24.1533 45.5924 23.833 44.0618 24.9374L33.7601 32.3731H24.0775C22.9338 32.3731 22.0137 31.471 22.0137 30.3498C22.0137 29.2285 22.9338 28.3264 24.0775 28.3264H30.2688C31.7909 28.3264 33.0205 27.1209 33.0205 25.6287C33.0205 24.1365 31.7909 22.9309 30.2688 22.9309H17.181C14.2659 22.9309 11.4626 24.069 9.39881 26.0924Z" fill="#FE9F5D"/>
</svg>
