<svg width="34" height="45" viewBox="0 0 34 45" fill="none" xmlns="http://www.w3.org/2000/svg">
<path d="M25.9963 25.5228C28.1443 23.252 29.4595 20.2008 29.4595 16.834C29.4595 9.86367 23.8043 4.2085 16.834 4.2085C9.86367 4.2085 4.2085 9.86367 4.2085 16.834C4.2085 20.2008 5.52366 23.252 7.67174 25.5228C9.53927 27.4868 11.6084 30.2574 12.3449 33.668H21.3231C22.0596 30.2486 24.1287 27.4868 25.9963 25.5228ZM29.0474 28.4161C26.9782 30.5993 25.251 33.2647 25.251 36.272V37.8765C25.251 41.7518 22.1122 44.8907 18.2368 44.8907H15.4312C11.5558 44.8907 8.417 41.7518 8.417 37.8765V36.272C8.417 33.2647 6.68976 30.5993 4.62058 28.4161C1.75354 25.4 0 21.3231 0 16.834C0 7.54023 7.54023 0 16.834 0C26.1278 0 33.668 7.54023 33.668 16.834C33.668 21.3231 31.9145 25.4 29.0474 28.4161ZM12.6255 16.1326C12.6255 17.2987 11.6874 18.2368 10.5212 18.2368C9.35514 18.2368 8.417 17.2987 8.417 16.1326C8.417 11.8715 11.8715 8.417 16.1326 8.417C17.2987 8.417 18.2368 9.35514 18.2368 10.5212C18.2368 11.6874 17.2987 12.6255 16.1326 12.6255C14.1949 12.6255 12.6255 14.1949 12.6255 16.1326Z" fill="#FE9F5D"/>
</svg>
