<svg width="259" height="413" viewBox="0 0 259 413" fill="none" xmlns="http://www.w3.org/2000/svg">
<path d="M37.0059 47.5846C36.5384 47.2986 35.8892 47.0192 33.4999 45.6804C31.8703 44.7706 31.8508 44.7186 31.1626 44.3611C28.6175 43.0614 27.3515 42.4115 26.3387 42.7494C24.7025 43.3018 25.4232 45.4464 23.2677 46.9932C21.6251 48.1695 19.9889 47.799 19.4695 49.0403C19.2033 49.6772 19.4111 50.3011 19.6189 50.9445C21.1316 55.7471 20.1837 55.7016 21.3718 57.9697C22.6509 60.4068 24.5077 61.908 25.6115 62.6489C27.0788 63.6367 29.8836 65.5344 33.2143 64.8455C36.9085 64.0786 39.1939 60.5563 39.9405 57.6773C40.9663 53.687 39.5055 49.1248 37.0189 47.5846H37.0059Z" fill="#EA6300" stroke="white" stroke-miterlimit="10"/>
<path d="M7.77696 18.0343C6.63427 18.2683 6.61481 20.0555 5.5825 20.2309C4.02429 20.4974 2.60242 16.6631 1.34287 17.014C0.752046 17.1765 0.563762 18.1708 0.531299 18.3268C0.245627 19.984 1.99211 20.6598 2.65435 22.863C3.29712 24.9881 2.0051 25.4755 2.65435 27.5421C3.23868 29.4073 4.29048 29.0109 5.72533 31.4934C6.84205 33.4236 6.6083 34.3594 8.06263 36.465C8.90017 37.6803 9.38712 38.3757 9.91301 38.3107C11.3024 38.1417 11.6206 32.9297 11.8932 28.6014C12.2049 23.6168 11.8218 21.6997 10.6921 20.075C10.3935 19.646 9.02354 17.7679 7.77048 18.0278L7.77696 18.0343Z" fill="#EA6300" stroke="white" stroke-miterlimit="10"/>
<path d="M257.447 279.782C258.414 275.701 258.453 274.745 257.914 274.284C257.551 273.972 256.979 273.92 254.499 274.68C250.136 276.006 249.818 276.799 247.669 277.046C246.857 277.143 244.079 277.462 241.891 275.733C240.274 274.453 239.755 272.679 239.657 272.315C238.651 268.63 241.644 266.81 240.579 263.242C240.157 261.826 239.631 261.93 238.872 259.694C238.307 258.03 237.839 256.646 238.216 255.093C238.677 253.163 239.962 252.929 239.923 251.408C239.884 249.809 238.424 248.672 238.216 248.516C236.969 247.567 235.917 247.834 232.308 247.463C229.691 247.197 228.38 247.06 227.581 246.586C225.945 245.617 225.25 243.746 224.543 240.269C223.601 235.648 223.452 232.223 222.822 224.464C222.484 220.298 222.335 218.946 221.433 217.204C220.303 215.021 218.784 213.773 219.271 212.727C219.855 211.472 222.445 212.304 223.439 210.719C223.634 210.407 223.705 210.101 223.439 207.164C223.238 204.954 223.14 203.849 222.978 202.992C222.828 202.212 222.471 200.496 221.588 198.202C220.082 194.277 219.342 194.614 217.881 190.943C216.803 188.213 215.998 186.101 216.648 183.839C216.842 183.157 217.102 182.709 217.109 181.831C217.128 180.005 216.044 179.531 215.589 177.613C215.518 177.302 215.018 175.033 216.096 173.058C217.031 171.349 218.556 170.926 218.375 170.023C218.245 169.379 217.44 169.373 216.687 168.502C215.901 167.592 215.758 166.403 215.778 165.467C212.778 165.246 209.779 165.019 206.779 164.798C204.929 162.614 203.747 162.348 203.02 162.51C202.013 162.731 201.819 163.758 199.124 166.949C198.105 168.158 197.644 168.58 196.956 168.899C195.813 169.425 194.735 169.353 193.573 169.269C191.937 169.152 190.957 169.087 190.333 168.353C189.794 167.722 189.827 166.845 189.918 165.11C190.009 163.388 190.061 162.335 190.528 161.028C191.528 158.227 192.891 158.533 193.482 156.05C193.761 154.894 193.638 154.094 194.287 152.554C194.677 151.625 195.086 151.033 195.229 150.806C195.794 149.896 196.125 148.278 195.385 145.171C195.521 145.132 195.651 145.093 195.794 145.054C198.657 144.235 200.605 142.5 201.806 141.402C203.747 139.628 203.474 139.212 205.026 138.179C205.818 137.652 206.513 137.347 209.753 136.242C213.862 134.845 213.752 134.988 214.265 134.734C215.622 134.058 217.199 132.596 218.316 129.178C217.583 128.183 216.583 126.838 215.388 125.265C204.507 110.89 202.39 110.019 196.975 102.025C194.729 98.711 190.736 92.8166 186.97 84.3941C184.094 77.9732 184.263 76.5889 181.757 73.0211C177.588 67.0876 174.797 67.5945 168.09 60.6862C164.181 56.657 165.908 57.2938 158.682 48.5789C152.43 41.0467 151.099 40.5268 147.703 35.3472C144.918 31.097 144.905 30.0572 142.548 27.7241C139.724 24.9231 134.738 21.4592 133.582 20.6533C131.569 19.2561 130.414 18.5672 129.557 16.9425C128.511 14.9669 129.102 13.8556 127.758 12.0684C127.401 11.594 127.343 11.6459 124.473 9.31286C122.739 7.89611 121.863 7.18123 121.506 6.77181C120.084 5.1146 120.454 4.50371 119.071 2.853C118.143 1.7482 117.039 0.435431 115.442 0.33145C113.773 0.227468 112.423 1.50774 111.358 2.51506C110.891 2.95698 110.06 3.76284 109.456 4.98462C108.014 7.9221 109.832 9.36485 108.793 11.9254C107.443 15.2528 102.918 16.4291 102.333 16.5851C100.671 17.0205 100.717 16.5591 99.1975 17.0595C96.9706 17.7939 96.3798 18.9506 93.4516 20.1074C91.9518 20.6988 91.2831 20.7248 90.7507 20.4519C90.1729 20.1594 90.1015 19.6915 89.4262 18.3787C88.6926 16.949 88.0044 15.6362 86.7838 14.6939C86.3617 14.369 85.1412 13.4331 84.2971 13.8426C84.0569 13.9595 83.7193 14.2455 83.3752 16.3966C83.0376 18.4697 82.8753 19.5095 83.1415 20.4909C83.6609 22.408 84.875 22.2131 85.3944 23.8703C86.0696 26.0214 84.7776 28.7639 83.1869 30.2781C81.9598 31.4479 81.1223 31.344 80.6678 32.4358C80.051 33.924 81.3365 34.7753 81.1158 36.491C80.8301 38.7461 78.3889 39.0841 76.61 41.6771C75.2011 43.7373 75.1167 45.8949 75.0323 47.9875C74.7726 54.6098 78.6486 60.2898 79.7588 61.96C84.1738 68.6083 86.6734 75.0552 91.0234 86.9741C91.374 87.9359 91.7376 88.9237 92.1142 89.9636C96.3668 101.648 97.9574 111.254 98.769 116.342C99.3144 119.735 99.665 124.277 100.373 133.356C100.834 139.244 100.996 142.637 99.7364 146.835C98.7755 150.039 98.0289 150.247 96.9641 153.542C95.1332 159.196 96.7174 160.496 95.7889 167.228C94.6398 175.579 90.952 182.67 88.0888 185.035C87.8615 185.224 87.2188 185.731 86.5695 186.601C84.875 188.87 84.7516 191.45 84.7191 192.613C84.5049 201.25 86.3358 219.2 86.3358 219.2C86.8747 224.496 87.4525 230.56 86.3358 238.391C84.4335 251.681 79.7069 255.574 77.7916 256.191C77.5514 256.269 76.2723 256.646 74.5583 257.348C73.7143 257.692 72.656 258.16 71.0913 258.966C67.7606 260.682 67.7022 261.065 65.7804 261.969C62.9367 263.307 62.7614 262.625 60.2358 263.821C58.0608 264.848 55.7299 265.952 54.6911 268.214C53.4705 270.872 55.256 272.477 53.7692 275.382C52.8537 277.169 52.0552 276.799 51.2306 278.385C50.7696 279.275 50.5813 280.243 50.5684 281.238C51.1981 281.322 51.8149 281.296 52.4122 281.101C54.4314 280.445 55.3923 278.216 56.3727 278.58C57.3401 278.937 56.535 281.134 57.9894 282.726C59.0087 283.837 60.5214 283.98 62.4887 284.169C65.235 284.429 67.3516 283.798 67.8905 283.629C69.9486 282.979 70.5654 282.238 73.6494 280.204C77.428 277.715 79.3173 276.467 81.0314 276.058C85.1347 275.077 87.8745 276.851 88.9523 275.337C89.8807 274.03 88.2056 272.191 89.3094 270.833C90.1339 269.819 92.1077 269.566 93.2698 270.294C94.4255 271.021 94.0554 272.282 95.6071 273.894C95.6721 273.959 97.1783 275.506 97.7692 275.155C98.5612 274.687 96.4706 271.496 97.7692 269.748C98.756 268.422 100.814 269.137 101.366 267.947C101.918 266.758 100.016 265.731 100.106 263.983C100.217 261.936 102.944 261.455 106.768 258.219C109.3 256.074 111.455 254.248 112.17 251.375C112.89 248.464 111.365 247.593 112.17 244.168C112.449 242.985 113.118 240.145 115.409 238.586C117.928 236.87 119.63 238.592 124.226 236.786C126.473 235.902 127.836 234.751 128.187 234.446C129.706 233.133 130.641 231.684 131.225 230.56C131.394 230.982 131.595 231.502 131.849 232.158C133.647 236.805 134.556 239.158 134.861 240.314C136.03 244.753 134.77 244.636 135.926 247.762C137.335 251.596 139.075 251.356 140.178 255.21C140.938 257.868 140.497 259.304 141.847 260.422C143.301 261.624 144.749 260.721 145.833 261.975C146.788 263.073 145.931 264.068 146.723 266.856C147.177 268.474 147.515 268.305 148.275 270.404C149.177 272.9 149.696 274.329 149.164 275.727C148.43 277.644 146.476 277.488 146.061 279.275C145.756 280.594 146.762 280.9 147.171 283.044C147.762 286.125 146.028 287.275 146.95 289.478C147.411 290.57 148.463 291.772 149.833 292.143C152.229 292.786 153.618 290.349 155.592 291.031C157.371 291.642 158 294.222 158.254 295.243C158.76 297.322 158.13 297.888 158.033 301.677C157.949 304.867 157.923 307.162 159.364 308.331C160.344 309.124 161.013 308.611 161.799 309.443C163.136 310.853 161.558 312.738 162.682 314.986C163.662 316.949 165.305 316.409 166.006 318.314C166.571 319.854 165.603 320.471 166.006 323.194C166.265 324.929 166.694 324.91 166.668 326.08C166.629 328.107 165.318 328.491 164.896 330.518C164.389 332.923 166.012 333.43 165.558 335.62C165.331 336.705 164.792 337.284 161.571 340.501C157.838 344.224 157.89 344.127 157.806 344.27C155.754 347.792 159.156 350.47 158.468 356.247C158.078 359.51 157.007 358.567 154.702 365.56C152.716 371.585 152.884 374.197 153.151 375.763C153.547 378.096 154.456 379.929 154.923 380.865C156.851 384.693 158.916 385.746 159.13 388.852C159.169 389.424 159.241 390.626 158.689 391.958C157.364 395.136 154.28 394.695 152.709 397.502C151.326 399.978 151.813 403.721 153.599 405.041C155.027 406.1 156.449 404.982 157.806 406.152C159.409 407.53 158.104 409.648 159.578 411.254C161.169 412.982 164.785 412.787 167.109 411.475C169.077 410.363 168.687 409.252 170.434 408.147C172.713 406.704 174.537 407.861 180.406 408.147C185.152 408.381 187.522 408.498 189.489 407.036C191.827 405.307 190.567 403.676 193.034 400.602C195.599 397.405 200.241 395.084 204.11 394.168C205.526 393.837 206.909 393.668 208.103 392.472C209.798 390.776 209.843 388.261 209.856 387.643C209.934 383.646 207.22 382.594 207.883 379.962C208.415 377.862 210.246 378.142 211.389 375.354C212.129 373.547 211.992 371.89 211.83 369.869C211.609 367.23 211.032 366.607 210.512 363.507C210.136 361.238 210.103 359.529 210.071 358.022C209.96 352.244 211.09 352.121 210.512 348.585C210.168 346.499 209.577 345.381 210.291 344.198C211.226 342.652 213.336 342.736 213.362 342.002C213.388 341.151 210.525 341.066 207.662 339.149C206.87 338.622 203.591 336.426 203.279 333.228C203.065 331.071 204.292 329.427 206.389 326.697C209.934 322.076 211.512 322.733 213.388 319.457C215.693 315.428 214.258 312.738 216.654 311.288C218.647 310.079 221.199 310.996 222.017 309.423C222.478 308.533 221.894 307.811 222.484 307.09C223.283 306.115 225.192 306.44 226.218 306.622C228.191 306.98 229.633 307.701 231.814 308.955C236.476 311.626 237.67 312.77 238.813 312.224C239.839 311.73 239.436 310.541 240.91 309.423C242.137 308.494 242.968 308.897 244.41 308.253C246.306 307.409 245.916 306.252 248.143 304.049C250.792 301.423 252.681 301.748 253.739 299.382C254.285 298.154 253.824 297.979 254.441 296.581C255.577 294.008 257.356 294.118 257.94 292.377C258.654 290.252 256.239 289.355 256.077 285.839C256.025 284.702 256.278 284.831 257.479 279.769L257.447 279.782ZM192.684 145.561C192.781 145.568 192.872 145.574 192.969 145.581C192.872 145.581 192.781 145.574 192.684 145.561ZM193.197 145.574C193.287 145.574 193.372 145.568 193.463 145.561C193.372 145.568 193.281 145.574 193.197 145.574ZM194.248 145.444C194.333 145.425 194.411 145.412 194.495 145.392C194.411 145.412 194.333 145.431 194.248 145.444ZM194.794 145.314C194.865 145.295 194.937 145.275 195.001 145.262C194.93 145.282 194.859 145.301 194.794 145.314ZM191.976 145.444C191.814 145.399 191.651 145.34 191.489 145.262C191.651 145.334 191.814 145.392 191.976 145.444ZM130.615 228.98C130.615 228.98 130.615 228.961 130.608 228.954C130.608 228.961 130.608 228.974 130.615 228.98ZM130.544 228.766C130.544 228.766 130.544 228.759 130.544 228.753C130.544 228.753 130.544 228.759 130.544 228.766ZM130.492 228.597C130.492 228.597 130.492 228.59 130.492 228.584C130.492 228.584 130.492 228.59 130.492 228.597ZM130.453 228.441C130.453 228.441 130.453 228.421 130.453 228.415C130.453 228.421 130.453 228.435 130.453 228.441ZM130.823 229.552C130.823 229.552 130.829 229.572 130.836 229.585C130.836 229.572 130.829 229.565 130.823 229.552Z" fill="#EA6300"/>
<path d="M193.716 145.529C193.8 145.516 193.891 145.503 193.976 145.49M192.469 145.542C192.365 145.529 192.255 145.503 192.151 145.477M119.337 94.9677C119.201 94.9677 119.065 94.9612 118.909 94.9677M120.091 95.0782C120.019 95.0587 119.941 95.0392 119.863 95.0262M119.759 95.0067C119.649 94.9872 119.539 94.9742 119.415 94.9677M257.447 279.782C258.414 275.701 258.453 274.745 257.914 274.284C257.551 273.972 256.979 273.92 254.499 274.68C250.136 276.006 249.818 276.799 247.669 277.046C246.857 277.143 244.079 277.462 241.891 275.733C240.274 274.453 239.755 272.679 239.657 272.315C238.651 268.63 241.644 266.81 240.579 263.242C240.157 261.826 239.631 261.93 238.872 259.694C238.307 258.03 237.839 256.646 238.216 255.093C238.677 253.163 239.962 252.929 239.923 251.408C239.884 249.809 238.424 248.672 238.216 248.516C236.969 247.567 235.917 247.834 232.308 247.463C229.691 247.197 228.38 247.06 227.581 246.586C225.945 245.617 225.25 243.746 224.543 240.269C223.601 235.648 223.452 232.223 222.822 224.464C222.484 220.298 222.335 218.946 221.433 217.204C220.303 215.021 218.784 213.773 219.271 212.727C219.855 211.472 222.445 212.304 223.439 210.719C223.634 210.407 223.705 210.101 223.439 207.164C223.238 204.954 223.14 203.849 222.978 202.992C222.828 202.212 222.471 200.496 221.588 198.202C220.082 194.277 219.342 194.614 217.881 190.943C216.803 188.213 215.998 186.101 216.648 183.839C216.842 183.157 217.102 182.709 217.109 181.831C217.128 180.005 216.044 179.531 215.589 177.613C215.518 177.302 215.018 175.033 216.096 173.058C217.031 171.349 218.556 170.926 218.375 170.023C218.245 169.379 217.44 169.373 216.687 168.502C215.901 167.592 215.758 166.403 215.778 165.467C212.778 165.246 209.779 165.019 206.779 164.798C204.929 162.614 203.747 162.348 203.02 162.51C202.013 162.731 201.819 163.758 199.124 166.949C198.105 168.158 197.644 168.58 196.956 168.899C195.813 169.425 194.735 169.353 193.573 169.269C191.937 169.152 190.957 169.087 190.333 168.353C189.794 167.722 189.827 166.845 189.918 165.11C190.009 163.388 190.061 162.335 190.528 161.028C191.528 158.227 192.891 158.533 193.482 156.05C193.761 154.894 193.638 154.094 194.287 152.554C194.677 151.625 195.086 151.033 195.229 150.806C195.794 149.896 196.125 148.278 195.385 145.171C195.521 145.132 195.651 145.093 195.794 145.054C198.657 144.235 200.605 142.5 201.806 141.402C203.747 139.628 203.474 139.212 205.026 138.179C205.818 137.652 206.513 137.347 209.753 136.242C213.862 134.845 213.752 134.988 214.265 134.734C215.622 134.058 217.199 132.596 218.316 129.178C217.583 128.183 216.583 126.838 215.388 125.265C204.507 110.89 202.39 110.019 196.975 102.025C194.729 98.711 190.736 92.8166 186.97 84.394C184.094 77.9732 184.263 76.5889 181.757 73.0211C177.588 67.0876 174.797 67.5945 168.09 60.6862C164.181 56.657 165.908 57.2938 158.682 48.5789C152.43 41.0467 151.099 40.5268 147.703 35.3472C144.918 31.097 144.905 30.0572 142.548 27.7241C139.724 24.9231 134.738 21.4592 133.582 20.6533C131.569 19.2561 130.414 18.5672 129.557 16.9425C128.511 14.9669 129.102 13.8556 127.758 12.0684C127.401 11.594 127.343 11.6459 124.473 9.31286C122.739 7.89611 121.863 7.18124 121.506 6.77181C120.084 5.1146 120.454 4.50371 119.071 2.853C118.143 1.7482 117.039 0.435431 115.442 0.33145C113.773 0.227468 112.423 1.50774 111.358 2.51506C110.891 2.95698 110.06 3.76284 109.456 4.98462C108.014 7.9221 109.832 9.36485 108.793 11.9254C107.443 15.2528 102.918 16.4291 102.333 16.5851C100.671 17.0205 100.717 16.5591 99.1975 17.0595C96.9706 17.7939 96.3798 18.9506 93.4516 20.1074C91.9518 20.6988 91.2831 20.7248 90.7507 20.4519C90.1729 20.1594 90.1015 19.6915 89.4262 18.3787C88.6926 16.949 88.0044 15.6362 86.7838 14.6939C86.3617 14.369 85.1412 13.4331 84.2971 13.8426C84.0569 13.9595 83.7193 14.2455 83.3752 16.3966C83.0376 18.4697 82.8753 19.5095 83.1415 20.4909C83.6609 22.408 84.875 22.2131 85.3944 23.8703C86.0696 26.0214 84.7776 28.7639 83.1869 30.2781C81.9598 31.4479 81.1223 31.3439 80.6678 32.4358C80.051 33.924 81.3365 34.7753 81.1158 36.491C80.8301 38.7461 78.3889 39.0841 76.61 41.6771C75.2011 43.7373 75.1167 45.8949 75.0323 47.9875C74.7726 54.6098 78.6486 60.2898 79.7588 61.96C84.1738 68.6083 86.6734 75.0552 91.0234 86.9741C91.374 87.9359 91.7376 88.9237 92.1142 89.9636C96.3668 101.648 97.9574 111.254 98.769 116.342C99.3144 119.735 99.665 124.277 100.373 133.356C100.834 139.244 100.996 142.637 99.7364 146.835C98.7755 150.039 98.0289 150.247 96.9641 153.542C95.1332 159.196 96.7174 160.496 95.7889 167.228C94.6398 175.579 90.952 182.67 88.0888 185.035C87.8615 185.224 87.2188 185.731 86.5695 186.601C84.875 188.87 84.7516 191.45 84.7191 192.613C84.5049 201.25 86.3358 219.2 86.3358 219.2C86.8747 224.496 87.4525 230.56 86.3358 238.391C84.4335 251.681 79.7069 255.574 77.7916 256.191C77.5514 256.269 76.2723 256.646 74.5583 257.348C73.7143 257.692 72.656 258.16 71.0913 258.966C67.7606 260.682 67.7022 261.065 65.7804 261.969C62.9367 263.307 62.7614 262.625 60.2358 263.821C58.0608 264.848 55.7299 265.952 54.6911 268.214C53.4705 270.872 55.256 272.477 53.7692 275.382C52.8537 277.169 52.0552 276.799 51.2306 278.385C50.7696 279.275 50.5813 280.243 50.5684 281.238C51.1981 281.322 51.8149 281.296 52.4122 281.101C54.4314 280.445 55.3923 278.216 56.3727 278.58C57.3401 278.937 56.535 281.134 57.9894 282.726C59.0087 283.837 60.5214 283.98 62.4887 284.169C65.235 284.429 67.3516 283.798 67.8905 283.629C69.9486 282.979 70.5654 282.238 73.6494 280.204C77.428 277.715 79.3173 276.467 81.0314 276.058C85.1347 275.077 87.8745 276.851 88.9523 275.337C89.8807 274.03 88.2056 272.191 89.3094 270.833C90.1339 269.819 92.1077 269.566 93.2698 270.294C94.4255 271.021 94.0554 272.282 95.6071 273.894C95.672 273.959 97.1783 275.506 97.7692 275.155C98.5612 274.687 96.4706 271.496 97.7692 269.748C98.756 268.422 100.814 269.137 101.366 267.947C101.918 266.758 100.016 265.731 100.106 263.983C100.217 261.936 102.944 261.455 106.768 258.219C109.3 256.074 111.455 254.248 112.17 251.375C112.89 248.464 111.365 247.593 112.17 244.168C112.449 242.985 113.118 240.145 115.409 238.586C117.928 236.87 119.63 238.592 124.226 236.786C126.473 235.902 127.836 234.751 128.187 234.446C129.706 233.133 130.641 231.684 131.225 230.56C131.394 230.982 131.595 231.502 131.849 232.158C133.647 236.805 134.556 239.158 134.861 240.314C136.03 244.753 134.77 244.636 135.926 247.762C137.335 251.596 139.075 251.356 140.178 255.21C140.938 257.868 140.497 259.304 141.847 260.422C143.301 261.624 144.749 260.721 145.833 261.975C146.788 263.073 145.931 264.068 146.723 266.856C147.177 268.474 147.515 268.305 148.275 270.404C149.177 272.9 149.696 274.329 149.164 275.727C148.43 277.644 146.476 277.488 146.061 279.275C145.756 280.594 146.762 280.9 147.171 283.044C147.762 286.125 146.028 287.275 146.95 289.478C147.411 290.57 148.463 291.772 149.833 292.143C152.229 292.786 153.618 290.349 155.592 291.031C157.371 291.642 158 294.222 158.254 295.243C158.76 297.322 158.13 297.888 158.033 301.677C157.949 304.867 157.923 307.162 159.364 308.331C160.344 309.124 161.013 308.611 161.799 309.443C163.136 310.853 161.558 312.738 162.682 314.986C163.662 316.949 165.305 316.409 166.006 318.314C166.571 319.854 165.603 320.471 166.006 323.194C166.265 324.929 166.694 324.91 166.668 326.08C166.629 328.107 165.318 328.491 164.896 330.518C164.389 332.923 166.012 333.43 165.558 335.62C165.331 336.705 164.792 337.284 161.571 340.501C157.838 344.224 157.89 344.127 157.806 344.27C155.754 347.792 159.156 350.47 158.468 356.247C158.078 359.51 157.007 358.567 154.702 365.56C152.716 371.585 152.884 374.197 153.151 375.763C153.547 378.096 154.456 379.929 154.923 380.865C156.851 384.693 158.916 385.746 159.13 388.852C159.169 389.424 159.241 390.626 158.689 391.958C157.364 395.136 154.28 394.695 152.709 397.502C151.326 399.978 151.813 403.721 153.599 405.041C155.027 406.1 156.449 404.982 157.806 406.152C159.409 407.53 158.104 409.648 159.578 411.254C161.169 412.982 164.785 412.787 167.109 411.475C169.077 410.363 168.687 409.252 170.434 408.147C172.713 406.704 174.537 407.861 180.406 408.147C185.152 408.381 187.522 408.498 189.489 407.036C191.827 405.307 190.567 403.676 193.034 400.602C195.599 397.405 200.241 395.084 204.11 394.168C205.526 393.837 206.909 393.668 208.103 392.472C209.798 390.776 209.843 388.261 209.856 387.643C209.934 383.646 207.22 382.594 207.883 379.962C208.415 377.862 210.246 378.142 211.389 375.354C212.129 373.547 211.992 371.89 211.83 369.869C211.609 367.23 211.032 366.607 210.512 363.507C210.136 361.238 210.103 359.529 210.071 358.022C209.96 352.244 211.09 352.121 210.512 348.585C210.168 346.499 209.577 345.381 210.291 344.198C211.226 342.652 213.336 342.736 213.362 342.002C213.388 341.151 210.525 341.066 207.662 339.149C206.87 338.622 203.591 336.426 203.279 333.228C203.065 331.071 204.292 329.427 206.389 326.697C209.934 322.076 211.512 322.733 213.388 319.457C215.693 315.428 214.258 312.738 216.654 311.288C218.647 310.08 221.199 310.996 222.017 309.423C222.478 308.533 221.894 307.811 222.484 307.09C223.283 306.115 225.192 306.44 226.218 306.622C228.191 306.98 229.633 307.701 231.814 308.955C236.476 311.626 237.67 312.77 238.813 312.224C239.839 311.73 239.436 310.541 240.91 309.423C242.137 308.494 242.968 308.897 244.41 308.253C246.306 307.408 245.916 306.252 248.143 304.049C250.792 301.423 252.681 301.748 253.739 299.382C254.285 298.154 253.824 297.979 254.441 296.581C255.577 294.008 257.356 294.118 257.94 292.377C258.654 290.252 256.239 289.355 256.077 285.839C256.025 284.702 256.278 284.831 257.479 279.769L257.447 279.782ZM192.684 145.561C192.781 145.568 192.872 145.574 192.969 145.581C192.872 145.581 192.781 145.574 192.684 145.561ZM193.197 145.574C193.287 145.574 193.372 145.568 193.463 145.561C193.372 145.568 193.281 145.574 193.197 145.574ZM194.248 145.444C194.333 145.425 194.411 145.412 194.495 145.392C194.411 145.412 194.333 145.431 194.248 145.444ZM194.794 145.314C194.865 145.295 194.937 145.275 195.001 145.262C194.93 145.282 194.859 145.301 194.794 145.314ZM191.976 145.444C191.814 145.399 191.651 145.34 191.489 145.262C191.651 145.334 191.814 145.392 191.976 145.444ZM130.615 228.98C130.615 228.98 130.615 228.961 130.608 228.954C130.608 228.961 130.608 228.974 130.615 228.98ZM130.544 228.766C130.544 228.766 130.544 228.759 130.544 228.753C130.544 228.753 130.544 228.759 130.544 228.766ZM130.492 228.597C130.492 228.597 130.492 228.59 130.492 228.584C130.492 228.584 130.492 228.59 130.492 228.597ZM130.453 228.441C130.453 228.441 130.453 228.421 130.453 228.415C130.453 228.421 130.453 228.435 130.453 228.441ZM130.823 229.552C130.823 229.552 130.829 229.572 130.836 229.585C130.836 229.572 130.829 229.565 130.823 229.552Z" stroke="white" stroke-miterlimit="10"/>
</svg>
