<svg width="217" height="191" viewBox="0 0 217 191" fill="none" xmlns="http://www.w3.org/2000/svg">
<path d="M10.2314 62.8658C7.63435 63.2687 7.00457 62.8528 5.20614 63.5871C4.66077 63.8081 2.1936 64.8154 0.89509 67.181C0.362702 68.1493 0.115985 69.1827 0.538 74.1933C0.947031 79.0674 1.16778 81.5499 2.15464 84.078C3.29733 87.009 4.15435 89.2056 5.74502 89.4721C8.69913 89.966 13.0361 83.6426 14.0035 78.151C14.5879 74.8171 14.7242 70.9633 14.7242 70.9633C14.8021 68.7342 14.6723 68.3768 14.906 67.1875C15.6591 63.2817 18.1263 61.5725 17.6004 60.8966C17.0745 60.2207 14.7956 62.1639 10.2379 62.8722L10.2314 62.8658Z" fill="#EA6300" stroke="white" stroke-miterlimit="10"/>
<path d="M213.662 125.71C212.967 124.676 212.207 123.558 210.863 122.142C210.084 121.323 207.578 118.684 204.248 117.047C199.105 114.519 197.794 117.229 193.301 115.006C188.88 112.822 185.841 108.065 184.9 106.597C183.861 104.978 183.491 103.997 182.102 102.522C179.862 100.143 177.81 99.4803 175.992 98.447C173.901 97.2577 173.72 96.4843 166.571 86.7295C161.605 79.9447 160.507 78.697 158.683 78.5735C156.923 78.4565 154.976 79.6198 151.08 81.9399C147.931 83.818 146.542 85.1373 145.088 84.5719C144.159 84.208 144.159 83.4476 142.458 81.6474C141.367 80.4906 140.478 79.8668 139.536 79.1584C134.881 75.6555 129.278 71.4442 124.772 66.4271C123.727 65.2638 123.065 64.419 121.701 63.6456C119.026 62.1249 117.442 63.0282 114.54 61.7414C113.793 61.41 111.391 60.2402 110.008 57.9396C108.521 55.4701 108.788 52.6626 109.424 49.6016C110.677 43.5772 112.904 38.872 115.443 34.0694C118.26 28.7338 121.403 23.4113 125.714 17.6143C130.044 11.7913 131.96 10.3291 134.303 9.66619C136.563 9.0293 139.192 9.13328 141.114 9.34124C140.523 7.76852 139.764 7.15114 139.108 6.91068C136.965 6.11782 135.095 8.97732 131.927 8.30144C130.2 7.93101 130.369 7.00169 128.395 6.53378C125.876 5.93588 125.019 7.32661 122.474 7.04067C120.416 6.80671 120.52 5.85137 117.183 4.38912C114.676 3.29732 112.553 2.36801 110.125 2.75144C106.846 3.26485 105.723 5.74091 103.821 5.01953C102.49 4.51262 102.503 3.10238 100.925 2.75144C99.9448 2.53048 99.6462 3.01139 98.2828 3.10887C98.1594 3.11537 98.0425 3.12835 97.8997 3.12835C95.9519 3.15434 95.1339 2.39401 94.621 2.87492C94.1275 3.33634 94.7508 4.16167 94.7443 5.77338C94.7378 7.54107 93.9782 9.71819 92.4784 10.5695C91.7772 10.966 91.5305 10.7255 89.3295 10.823C85.3951 10.9985 84.8692 11.8303 83.5317 11.1999C81.7852 10.3746 81.9345 8.60039 80.5062 8.42492C79.1233 8.25595 78.461 9.86117 77.1041 9.56222C76.2536 9.37375 76.299 8.69789 75.0849 7.67107C73.2735 6.13085 72.1178 6.74171 71.1764 5.52642C70.1441 4.19416 71.1504 2.96588 70.3389 1.75059C69.2546 0.132382 66.2485 0.496336 63.9177 0.632812C62.7945 0.697801 61.483 0.736778 60.0092 0.697785C59.7235 2.01055 59.6586 3.32984 59.5807 4.90256C59.3729 9.26978 60.2624 11.1025 60.8987 15.8336C61.3272 19.0051 61.8596 22.9889 61.087 27.8955C60.5026 31.6258 59.7171 36.6039 56.0033 39.2035C54.562 40.2173 53.8023 40.0743 52.8025 41.2766C50.8158 43.6617 51.3741 47.1191 51.8611 50.1345C52.3805 53.3449 52.9518 56.9128 55.6267 60.1232C59.4379 64.6984 63.1126 63.2817 65.7941 67.6619C66.8718 69.4231 66.9757 70.7943 67.0991 72.0161C67.2159 73.2054 67.3523 74.2582 68.43 75.389C71.2673 78.3655 74.7798 75.8179 79.5388 78.0276C82.9019 79.5938 84.8302 83.0512 87.9012 89.5955C88.3362 90.5184 88.7907 91.5062 89.2776 92.559C91.7253 97.8491 92.9524 100.579 93.316 104.679C93.4004 105.622 93.4393 106.72 91.972 116.124C90.4333 125.97 89.6736 129.323 87.7129 129.81C86.1872 130.194 85.0704 128.556 83.9342 129.219C82.5448 130.031 83.6616 132.806 82.9928 136.192C82.2657 139.845 80.266 140.137 77.4482 144.816C75.2602 148.449 74.4941 151.536 73.3189 156.274C73.2086 156.729 73.0982 157.158 73.0008 157.573C71.9425 161.882 71.4686 164.306 72.1438 167.374C72.4165 168.615 72.4035 167.803 74.9745 173.873C76.3639 177.155 78.2792 180.241 79.2206 183.679C79.6492 185.233 79.9478 186.76 81.11 187.221C82.1423 187.637 82.8435 186.799 84.7718 186.63C86.6676 186.461 88.1609 187.078 89.375 187.572C91.985 188.644 92.1473 189.723 94.4522 190.289C95.3936 190.523 96.5363 190.802 97.7569 190.406C99.3995 189.873 100.14 188.456 102.36 184.264C104.321 180.56 105.314 178.695 105.665 178.357C107.931 176.18 110.989 175.679 114.164 175.166C118.351 174.483 120.299 174.34 120.299 174.34C121.903 174.217 122.519 174.249 123.318 173.801C125.285 172.709 125.831 170.194 126.09 168.946C126.707 165.924 126.116 163.669 125.792 161.694C125.551 160.238 123.837 149.944 127.707 147.221C130.447 145.291 133.602 148.852 137.634 146.525C139.088 145.687 138.829 145.135 142.484 141.671C145.678 138.642 145.776 139.162 146.73 137.921C149.873 133.84 147.256 130.272 150.041 127.217C151.827 125.261 155.216 124.195 157.93 125.437C161.046 126.86 162.643 131.026 161.494 133.079C160.442 134.957 157.586 134.171 156.657 136.134C155.891 137.752 156.8 140.455 158.436 141.229C160.851 142.373 162.838 138.389 168.11 136.901C173.44 135.393 180.732 136.823 184.653 140.975C186.685 143.127 186.893 145.037 189.237 145.817C192.21 146.805 195.385 144.881 196.366 144.29C198.482 143.003 198.32 142.249 203.241 137.414C205.546 135.146 206.267 134.639 207.312 134.36C209.61 133.742 210.688 134.951 212.655 134.106C214.233 133.43 215.609 131.773 215.707 130.031C215.772 128.855 215.077 127.789 213.668 125.703L213.662 125.71Z" fill="#EA6300" stroke="white" stroke-miterlimit="10"/>
</svg>
