<svg width="45" height="46" viewBox="0 0 45 46" fill="none" xmlns="http://www.w3.org/2000/svg">
<path d="M4.13725 0.394244C4.58339 -0.0610023 5.27739 -0.128446 5.80615 0.225634L15.6295 6.90258C16.3648 7.39998 16.8027 8.24303 16.8027 9.14509V13.3266L24.3045 20.9815C27.0557 19.7169 30.41 20.2312 32.6655 22.5411L43.0837 33.172C44.6287 34.7485 44.6287 37.3113 43.0837 38.8963L38.1184 43.963C36.5734 45.5395 34.0618 45.5395 32.5085 43.963L22.0903 33.3322C19.8266 31.0222 19.3226 27.6079 20.5619 24.8005L13.0601 17.1456H8.96219C8.07817 17.1456 7.25198 16.6988 6.76453 15.9485L0.221122 5.92464C-0.125877 5.39352 -0.0597823 4.67693 0.386359 4.22168L4.13725 0.394244ZM16.117 25.9808C15.5965 29.0916 16.307 32.3795 18.2816 35.0183L10.4411 43.0272C8.11948 45.3962 4.35206 45.3962 2.03047 43.0272C-0.291115 40.6582 -0.291115 36.8139 2.03047 34.445L13.2171 23.0217L16.1252 25.9808H16.117ZM30.0217 0.959087C31.6824 0.959087 33.2769 1.27101 34.7392 1.84429C35.5654 2.16465 35.7141 3.23532 35.0945 3.87603L30.41 8.65612C30.1622 8.90904 30.0217 9.25469 30.0217 9.60877V13.099C30.0217 13.8409 30.6166 14.4479 31.3436 14.4479H34.764C35.111 14.4479 35.4498 14.3045 35.6976 14.0516L40.3821 9.27155C41.01 8.63926 42.0593 8.79101 42.3732 9.63406C42.935 11.1263 43.2407 12.7533 43.2407 14.4479C43.2407 18.0898 41.8197 21.3862 39.5229 23.8141L35.4663 19.6748C32.7316 16.8927 28.9807 15.822 25.4612 16.4375L20.7684 11.6489V9.14509L20.7519 8.72357C20.6858 7.67819 20.3884 6.67496 19.8844 5.78133C22.3134 2.83065 25.9486 0.959087 30.0217 0.950656V0.959087Z" fill="#FE9F5D"/>
</svg>
